<svg width="23" height="23" fill="none" xmlns="http://www.w3.org/2000/svg"><path fill-rule="evenodd" clip-rule="evenodd" d="M12.594 22.95c3.536-.334 6.753-2.33 8.668-5.375 2.188-3.482 2.32-7.994.339-11.596a11.804 11.804 0 0 0-3.749-4.082C16.384.923 14.766.32 12.91.057c-.525-.075-2.303-.076-2.834-.001-2.836.397-5.18 1.617-7.093 3.69C1.414 5.446.407 7.625.059 10.071c-.089.624-.075 2.26.024 2.969.098.696.363 1.766.59 2.386.203.553.754 1.682 1.04 2.133a12.24 12.24 0 0 0 3.46 3.546c.597.397 1.76.98 2.427 1.216 1.605.568 3.339.786 4.994.63Zm-2.39-1.188c-1.58-.206-3.145-.782-4.402-1.618-2.298-1.53-3.924-3.922-4.45-6.552-.177-.89-.22-1.406-.193-2.395.043-1.615.34-2.832 1.046-4.275 1.446-2.96 4.262-5.069 7.533-5.643.709-.124 2.145-.172 2.835-.093 2.055.232 4 1.054 5.537 2.337 2.033 1.698 3.311 4.031 3.658 6.676.087.665.09 1.873.005 2.55-.495 3.966-3.225 7.305-6.997 8.558-.682.227-1.293.369-1.957.456-.64.084-1.975.083-2.616 0Zm3.321-5.764c.254-.158.342-.591.164-.81-.033-.04-.981-.88-2.107-1.866-1.126-.986-2.046-1.811-2.046-1.834 0-.023.92-.848 2.046-1.834a127.597 127.597 0 0 0 2.11-1.87c.034-.042.072-.177.084-.3.02-.212.013-.232-.159-.403-.155-.156-.207-.18-.377-.18a.695.695 0 0 0-.331.085c-.184.116-4.65 4.032-4.765 4.18-.126.16-.126.484 0 .644.116.148 4.58 4.064 4.765 4.18a.654.654 0 0 0 .616.008Z" fill="#1F4C84"/></svg>