<svg width="23" height="23" fill="none" xmlns="http://www.w3.org/2000/svg"><path fill-rule="evenodd" clip-rule="evenodd" d="M10.406.05C6.87.383 3.653 2.38 1.738 5.424-.45 8.907-.582 13.42 1.4 17.021a11.804 11.804 0 0 0 3.749 4.082c1.468.974 3.086 1.576 4.943 1.84.525.075 2.303.076 2.834.002 2.836-.398 5.18-1.618 7.093-3.691 1.568-1.7 2.575-3.879 2.923-6.325.088-.624.075-2.26-.024-2.969a14.03 14.03 0 0 0-.59-2.386c-.203-.553-.754-1.682-1.04-2.133a12.24 12.24 0 0 0-3.46-3.546C17.23 1.498 16.067.915 15.4.68a11.783 11.783 0 0 0-4.994-.63Zm2.39 1.188c1.58.206 3.145.782 4.402 1.618 2.298 1.53 3.924 3.922 4.45 6.552.178.89.22 1.406.193 2.395-.043 1.615-.34 2.832-1.046 4.275-1.446 2.96-4.262 5.069-7.533 5.643-.709.124-2.145.172-2.835.093-2.055-.232-4-1.054-5.537-2.337-2.033-1.698-3.311-4.031-3.658-6.676-.087-.665-.09-1.873-.005-2.55.495-3.966 3.225-7.305 6.997-8.558a10.209 10.209 0 0 1 1.957-.456c.64-.084 1.975-.084 2.616 0ZM9.476 7.003c-.254.157-.342.59-.164.809.033.04.981.88 2.107 1.866 1.126.986 2.046 1.811 2.046 1.834 0 .023-.92.848-2.046 1.834a127.781 127.781 0 0 0-2.11 1.87c-.034.042-.072.177-.084.3-.02.212-.013.232.159.403.155.155.207.18.377.18a.695.695 0 0 0 .331-.085c.184-.116 4.65-4.032 4.765-4.18.126-.16.126-.484 0-.644-.116-.148-4.58-4.064-4.765-4.18a.654.654 0 0 0-.616-.007Z" fill="#1F4C84"/></svg>