<svg width="109" height="20" fill="none" xmlns="http://www.w3.org/2000/svg"><g clip-path="url('#clip0_1_1852')"><path d="M12.525 8.333 10.5 1.666 8.475 8.334H2.167l5.15 3.675-1.959 6.325 5.142-3.908 5.15 3.908-1.958-6.325 5.141-3.675h-6.308Z" fill="#FBBC04"/></g><g clip-path="url('#clip1_1_1852')"><path d="M34.525 8.333 32.5 1.666l-2.025 6.667h-6.308l5.15 3.675-1.959 6.325 5.142-3.908 5.15 3.908-1.958-6.325 5.141-3.675h-6.308Z" fill="#FBBC04"/></g><g clip-path="url('#clip2_1_1852')"><path d="M56.525 8.333 54.5 1.666l-2.025 6.667h-6.308l5.15 3.675-1.959 6.325 5.142-3.908 5.15 3.908-1.958-6.325 5.141-3.675h-6.308Z" fill="#FBBC04"/></g><g clip-path="url('#clip3_1_1852')"><path d="M78.525 8.333 76.5 1.666l-2.025 6.667h-6.308l5.15 3.675-1.959 6.325 5.142-3.908 5.15 3.908-1.958-6.325 5.141-3.675h-6.308Z" fill="#FBBC04"/></g><g clip-path="url('#clip4_1_1852')"><path d="M100.525 8.333 98.5 1.666l-2.025 6.667h-6.308l5.15 3.675-1.959 6.325 5.142-3.908 5.15 3.908-1.958-6.325 5.141-3.675h-6.308Z" fill="#FBBC04"/></g><defs><clipPath id="clip0_1_1852"><path fill="#fff" transform="translate(.5)" d="M0 0h20v20H0z"/></clipPath><clipPath id="clip1_1_1852"><path fill="#fff" transform="translate(22.5)" d="M0 0h20v20H0z"/></clipPath><clipPath id="clip2_1_1852"><path fill="#fff" transform="translate(44.5)" d="M0 0h20v20H0z"/></clipPath><clipPath id="clip3_1_1852"><path fill="#fff" transform="translate(66.5)" d="M0 0h20v20H0z"/></clipPath><clipPath id="clip4_1_1852"><path fill="#fff" transform="translate(88.5)" d="M0 0h20v20H0z"/></clipPath></defs></svg>