<svg width="18" height="18" fill="none" xmlns="http://www.w3.org/2000/svg"><g clip-path="url('#clip0_1_924')" fill="#fff"><path d="m16.74 8.134-.466-1.865a.282.282 0 0 0 .223-.275v-.301c0-.653-.531-1.184-1.184-1.184H13.19v-.62a.583.583 0 0 0-.582-.582H1.784a.583.583 0 0 0-.583.582V9a.282.282 0 0 0 .564 0V3.89c0-.01.009-.019.019-.019h10.822c.01 0 .02.009.02.02V9a.282.282 0 1 0 .563 0v-.32h3.326c.41 0 .757.27.876.64h-.876a.282.282 0 0 0-.282.281v.601c0 .487.396.883.883.883h.32v1.24h-.738a1.788 1.788 0 0 0-1.687-1.202c-.78 0-1.444.503-1.686 1.202h-.136v-2.123a.282.282 0 1 0-.564 0v2.123H6.78a1.788 1.788 0 0 0-1.687-1.202c-.78 0-1.445.503-1.687 1.202h-1.62a.019.019 0 0 1-.019-.018v-.62h1.221a.282.282 0 0 0 0-.564H.282a.282.282 0 1 0 0 .564h.92v.62c0 .32.262.582.583.582h1.522v.019c0 .984.8 1.785 1.785 1.785.984 0 1.785-.8 1.785-1.785v-.019h6.351v.019c0 .984.8 1.785 1.784 1.785.985 0 1.785-.8 1.785-1.785v-.019h.921a.282.282 0 0 0 .282-.282V9.601c0-.742-.548-1.359-1.26-1.467Zm-3.55-3.061h2.123a.62.62 0 0 1 .62.62v.019H13.19v-.64Zm0 3.044V6.275h2.504l.46 1.842H13.19Zm-8.098 6.012a1.223 1.223 0 0 1-1.221-1.221c0-.673.547-1.221 1.22-1.221.674 0 1.222.548 1.222 1.22 0 .674-.548 1.222-1.221 1.222Zm9.92 0a1.223 1.223 0 0 1-1.22-1.221c0-.673.547-1.221 1.22-1.221.674 0 1.222.548 1.222 1.22 0 .674-.548 1.222-1.222 1.222Zm2.424-3.607h-.32a.32.32 0 0 1-.319-.32v-.32h.64v.64Z"/><path d="M5.092 12.326a.583.583 0 1 0 .001 1.166.583.583 0 0 0-.001-1.166ZM15.012 12.326a.583.583 0 1 0 .002 1.166.583.583 0 0 0-.002-1.166ZM11.706 11.123h-4.21a.282.282 0 0 0 0 .564h4.21a.282.282 0 1 0 0-.564ZM4.49 9.92H.884a.282.282 0 0 0 0 .565h3.608a.282.282 0 0 0 0-.564ZM9.8 6.095a.282.282 0 0 0-.398 0L6.896 8.602 5.592 7.298a.282.282 0 1 0-.399.398L6.696 9.2a.28.28 0 0 0 .399 0L9.8 6.494a.282.282 0 0 0 0-.399Z"/></g><defs><clipPath id="clip0_1_924"><path fill="#fff" d="M0 0h18v18H0z"/></clipPath></defs></svg>