<svg width="60" height="61" fill="none" xmlns="http://www.w3.org/2000/svg"><path d="M41.367 40.826a1.172 1.172 0 0 0-1.657.017l-.033.034a1.172 1.172 0 0 0 1.674 1.64l.033-.034a1.172 1.172 0 0 0-.017-1.657ZM53.974 28.54H50.86v-3.114a1.172 1.172 0 1 0-2.344 0v3.114h-3.114a1.172 1.172 0 1 0 0 2.344h3.114v3.114a1.172 1.172 0 1 0 2.343 0v-3.114h3.115a1.172 1.172 0 0 0 0-2.344Z" fill="#fff"/><path d="M53.519 20.138c-1.095-8.09-7.857-14.142-15.884-14.142-4.052 0-7.843 1.51-10.799 4.28-2.956-2.77-6.747-4.28-10.799-4.28C7.194 5.996 0 13.362 0 22.416c0 1.788.522 3.793 1.56 6.006h-.388a1.172 1.172 0 1 0 0 2.344h1.636c2.189 3.705 5.65 7.92 10.37 12.612 6.396 6.36 12.881 11.336 12.946 11.385a1.17 1.17 0 0 0 1.424 0c.05-.038 5.01-3.841 10.507-9.024a1.172 1.172 0 1 0-1.608-1.705 153.09 153.09 0 0 1-9.61 8.31c-1.84-1.455-6.962-5.61-12.024-10.645-4.052-4.03-7.154-7.704-9.251-10.933h10.491c.523 0 .982-.346 1.126-.849l2.048-7.137 5.67 18.166a1.172 1.172 0 0 0 2.237 0l3.14-10.063h5.232a1.172 1.172 0 0 0 0-2.343h-6.094c-.512 0-.966.333-1.118.822l-2.279 7.302-5.717-18.318a1.172 1.172 0 0 0-2.245.026l-2.883 10.05H4.175c-1.212-2.287-1.831-4.303-1.831-6.007 0-7.761 6.143-14.075 13.693-14.075 3.795 0 7.325 1.56 9.938 4.392a1.172 1.172 0 0 0 1.722 0C30.311 9.9 33.84 8.34 37.635 8.34c6.528 0 12.078 4.708 13.397 11.147-.44-.057-.889-.087-1.344-.087-5.687 0-10.313 4.626-10.313 10.312 0 5.686 4.626 10.313 10.313 10.313C55.373 40.025 60 35.398 60 29.712c0-4.333-2.686-8.05-6.481-9.574Zm-3.831 17.543c-4.394 0-7.97-3.575-7.97-7.969s3.576-7.969 7.97-7.969 7.968 3.575 7.968 7.97c0 4.393-3.574 7.968-7.968 7.968Z" fill="#fff"/></svg>