<svg width="19" height="18" fill="none" xmlns="http://www.w3.org/2000/svg"><path d="M9.001 6.563a2.437 2.437 0 1 0 0 4.875 2.437 2.437 0 0 0 0-4.875Z" fill="#fff"/><path fill-rule="evenodd" clip-rule="evenodd" d="M5.078 2.311a35.602 35.602 0 0 1 7.846 0 3.105 3.105 0 0 1 2.74 2.71c.309 2.644.309 5.314 0 7.958a3.105 3.105 0 0 1-2.74 2.71c-2.586.29-5.26.29-7.846 0a3.105 3.105 0 0 1-2.739-2.71 34.254 34.254 0 0 1 0-7.958 3.105 3.105 0 0 1 2.74-2.71Zm7.673 2.19a.75.75 0 1 0 0 1.5.75.75 0 0 0 0-1.5ZM5.44 9a3.562 3.562 0 1 1 7.125 0 3.562 3.562 0 0 1-7.125 0Z" fill="#fff"/></svg>