<svg width="61" height="60" fill="none" xmlns="http://www.w3.org/2000/svg"><g clip-path="url('#clip0_1_1789')" fill="#fff"><path d="M30.5 23.436c-3.142 0-5.697 2.552-5.697 5.69 0 3.136 2.555 5.688 5.696 5.688 3.14 0 5.696-2.552 5.696-5.689s-2.555-5.689-5.696-5.689Zm0 9.622a3.94 3.94 0 0 1-3.94-3.933 3.94 3.94 0 0 1 3.94-3.933 3.94 3.94 0 0 1 3.937 3.933 3.94 3.94 0 0 1-3.938 3.933Z"/><path d="m40.867 21.312-2.546-2.543a.88.88 0 0 0-1.15-.08l-1.917 1.439a10.134 10.134 0 0 0-1.748-.724l-.337-2.371a.879.879 0 0 0-.87-.755h-3.6a.879.879 0 0 0-.87.755l-.338 2.371c-.604.187-1.188.428-1.747.724l-1.918-1.44a.88.88 0 0 0-1.15.081l-2.545 2.543a.877.877 0 0 0-.081 1.148l1.44 1.916a10.122 10.122 0 0 0-.723 1.745l-2.375.337a.878.878 0 0 0-.756.87v3.595c0 .437.322.808.756.869l2.375.337c.186.603.428 1.187.724 1.745L20.05 35.79a.877.877 0 0 0 .081 1.148l2.545 2.542a.88.88 0 0 0 1.15.082l1.918-1.44c.559.295 1.143.537 1.747.724l.337 2.371a.879.879 0 0 0 .871.755h3.6a.879.879 0 0 0 .87-.755l.337-2.371c.604-.187 1.19-.429 1.748-.724l1.918 1.44a.88.88 0 0 0 1.15-.081l2.545-2.543a.877.877 0 0 0 .081-1.148l-1.441-1.916c.296-.558.538-1.142.724-1.745l2.375-.337a.878.878 0 0 0 .756-.87v-3.595a.879.879 0 0 0-.756-.869l-2.375-.337a10.075 10.075 0 0 0-.724-1.745l1.441-1.916a.877.877 0 0 0-.081-1.148Zm.737 6.777v2.071l-2.19.311a.879.879 0 0 0-.73.66 8.344 8.344 0 0 1-.976 2.355.876.876 0 0 0 .048.983l1.328 1.766-1.466 1.465-1.768-1.327a.879.879 0 0 0-.984-.048 8.392 8.392 0 0 1-2.358.975.879.879 0 0 0-.662.73l-.31 2.186h-2.074l-.311-2.187a.878.878 0 0 0-.662-.729 8.389 8.389 0 0 1-2.357-.975.879.879 0 0 0-.984.048L23.38 37.7l-1.467-1.465 1.329-1.766a.878.878 0 0 0 .048-.983 8.35 8.35 0 0 1-.977-2.355.878.878 0 0 0-.73-.66l-2.19-.31v-2.072l2.19-.31a.878.878 0 0 0 .73-.66 8.349 8.349 0 0 1 .977-2.356.877.877 0 0 0-.048-.982l-1.329-1.766 1.467-1.465 1.768 1.327a.88.88 0 0 0 .984.048 8.36 8.36 0 0 1 2.357-.975.88.88 0 0 0 .662-.73l.31-2.187h2.075l.31 2.187a.88.88 0 0 0 .662.73 8.362 8.362 0 0 1 2.358.975.88.88 0 0 0 .984-.048l1.768-1.327 1.466 1.465-1.328 1.766a.876.876 0 0 0-.048.982c.444.731.772 1.523.976 2.355.085.349.374.61.73.66l2.19.311ZM30.499 6.904a.878.878 0 0 0 .879-.878V.878a.878.878 0 0 0-1.758 0v5.148c0 .485.393.878.879.878ZM56.806 26.275H51.65a.878.878 0 1 0 0 1.756h5.155a.878.878 0 1 0 0-1.756ZM9.346 26.275H4.191a.878.878 0 1 0 0 1.756h5.155a.878.878 0 1 0 0-1.756ZM14.92 12.835a.888.888 0 0 0 1.243 0 .877.877 0 0 0 0-1.242l-3.645-3.64a.878.878 0 1 0-1.243 1.242l3.645 3.64ZM11.124 18.629l-1.78-.697a.877.877 0 1 0-.641 1.635l1.78.697a.888.888 0 0 0 1.14-.497.877.877 0 0 0-.499-1.138ZM21.964 7.803a.888.888 0 0 0 1.139.497.878.878 0 0 0 .498-1.138l-.719-1.83a.879.879 0 0 0-1.636.64l.718 1.83ZM37.894 8.3a.888.888 0 0 0 1.139-.498l.718-1.83a.878.878 0 0 0-1.637-.641l-.718 1.831a.877.877 0 0 0 .498 1.138ZM45.456 13.092c.224 0 .45-.086.621-.257l3.645-3.64a.878.878 0 1 0-1.243-1.242l-3.645 3.64a.877.877 0 0 0 .622 1.499ZM52.793 18.429a.879.879 0 0 0-1.139-.497l-1.782.697a.877.877 0 0 0-.497 1.137.888.888 0 0 0 1.139.498l1.781-.697a.877.877 0 0 0 .498-1.138Z"/><path d="M30.66 9.041a18.66 18.66 0 0 0-10.327 3.015.877.877 0 1 0 .956 1.473 16.91 16.91 0 0 1 9.356-2.732 16.96 16.96 0 0 1 11.963 5.037 16.92 16.92 0 0 1 4.949 11.999A17.065 17.065 0 0 1 40.31 41.77a6.534 6.534 0 0 0-2.722 4.43h-3.006a.878.878 0 1 0 0 1.755h2.946v4.502a2.021 2.021 0 0 1-2.02 2.017h-10.02a2.021 2.021 0 0 1-2.02-2.017v-4.502h7.598a.878.878 0 1 0 0-1.756h-7.66a6.45 6.45 0 0 0-2.686-4.406 17.059 17.059 0 0 1-7.28-13.96c0-4.623 1.855-8.962 5.224-12.218a.88.88 0 0 0-1.223-1.261c-3.713 3.59-5.758 8.377-5.758 13.48a18.816 18.816 0 0 0 8.028 15.397c1.252.876 2 2.314 2 3.846v5.38a3.78 3.78 0 0 0 3.03 3.698A6.194 6.194 0 0 0 30.498 60a6.192 6.192 0 0 0 5.757-3.845 3.78 3.78 0 0 0 3.03-3.698v-5.38c0-1.527.761-2.975 2.037-3.872a18.822 18.822 0 0 0 7.991-15.372c0-4.992-1.938-9.692-5.458-13.235A18.709 18.709 0 0 0 30.66 9.04Zm-.16 49.203a4.449 4.449 0 0 1-3.743-2.014h7.484a4.449 4.449 0 0 1-3.742 2.014Z"/></g><defs><clipPath id="clip0_1_1789"><path fill="#fff" transform="translate(.5)" d="M0 0h60v60H0z"/></clipPath></defs></svg>