<svg width="18" height="18" fill="none" xmlns="http://www.w3.org/2000/svg"><path fill-rule="evenodd" clip-rule="evenodd" d="M7.865 3.085a1.313 1.313 0 0 1 2.27 0l1.55 2.67c.142.246.389.414.67.456l2.572.389c1.122.17 1.515 1.585.642 2.308l-1.875 1.553a.938.938 0 0 0-.322.897l.525 2.757c.205 1.08-.928 1.92-1.901 1.407l-2.56-1.347a.938.938 0 0 0-.873 0l-2.559 1.347c-.973.513-2.106-.327-1.9-1.407l.524-2.757a.938.938 0 0 0-.322-.897L2.43 8.908c-.873-.723-.48-2.139.642-2.308l2.572-.389a.937.937 0 0 0 .67-.456l1.55-2.67Zm1.297.565a.187.187 0 0 0-.324 0l-1.55 2.67c-.313.54-.856.91-1.475 1.004l-2.572.388a.187.187 0 0 0-.092.33l1.874 1.553c.579.48.851 1.236.71 1.974l-.524 2.757a.187.187 0 0 0 .271.2l2.56-1.347a2.063 2.063 0 0 1 1.921 0l2.559 1.348c.139.073.3-.047.271-.201l-.524-2.757a2.063 2.063 0 0 1 .71-1.974l1.874-1.553a.188.188 0 0 0-.092-.33l-2.572-.388a2.063 2.063 0 0 1-1.476-1.004L9.162 3.65Z" fill="#F7F5F0"/></svg>