<svg width="56" height="56" fill="none" xmlns="http://www.w3.org/2000/svg"><g clip-path="url('#clip0_1_1832')" fill="#fff"><path d="M55.744 44.607 43.669 32.532c.06-.047.122-.09.188-.129l3.218-1.712a3.565 3.565 0 0 0 1.537-4.734l-1.603-3.279a1.818 1.818 0 0 1 0-1.606l1.603-3.279a3.565 3.565 0 0 0-1.537-4.733l-3.222-1.711a1.814 1.814 0 0 1-.943-1.3l-.63-3.594a3.565 3.565 0 0 0-4.026-2.926l-3.614.512a1.838 1.838 0 0 1-1.527-.496l-2.625-2.538a3.564 3.564 0 0 0-4.977 0l-2.625 2.538a1.837 1.837 0 0 1-1.528.496l-3.615-.512a3.567 3.567 0 0 0-4.025 2.926l-.63 3.595a1.815 1.815 0 0 1-.945 1.299l-3.218 1.71a3.565 3.565 0 0 0-1.537 4.734l1.603 3.279a1.818 1.818 0 0 1 0 1.606l-1.607 3.28a3.565 3.565 0 0 0 1.537 4.733l3.226 1.71c.065.04.127.082.187.13L.259 44.604a.875.875 0 0 0 .422 1.472l7.51 1.733 1.733 7.51a.875.875 0 0 0 1.472.422l13.548-13.548.568.55a3.565 3.565 0 0 0 4.976 0l.568-.55 13.55 13.55a.875.875 0 0 0 1.472-.422l1.734-7.51 7.51-1.733a.876.876 0 0 0 .422-1.472ZM11.272 53.39l-1.5-6.505a.875.875 0 0 0-.657-.656l-6.505-1.5 10.562-10.563.549 3.13a3.568 3.568 0 0 0 4.025 2.925l3.614-.512a1.844 1.844 0 0 1 1.527.497l.797.77L11.272 53.39Zm15.457-11.904-1.177-1.138-1.447-1.4a3.557 3.557 0 0 0-2.99-.972l-3.615.512a1.817 1.817 0 0 1-2.057-1.495l-.631-3.595a3.57 3.57 0 0 0-.438-1.157 3.544 3.544 0 0 0-1.406-1.386l-3.224-1.71a1.82 1.82 0 0 1-.787-2.419l1.602-3.276a3.564 3.564 0 0 0 0-3.145l-1.602-3.278a1.82 1.82 0 0 1 .787-2.419l3.223-1.71a3.555 3.555 0 0 0 1.848-2.543l.631-3.595A1.815 1.815 0 0 1 17.5 5.262l3.615.512a3.562 3.562 0 0 0 2.989-.972l2.625-2.537a1.82 1.82 0 0 1 2.542 0l2.625 2.537a3.56 3.56 0 0 0 2.989.973l3.615-.513a1.817 1.817 0 0 1 2.057 1.496l.631 3.594a3.556 3.556 0 0 0 1.847 2.543l3.225 1.71a1.82 1.82 0 0 1 .787 2.42L45.441 20.3a3.564 3.564 0 0 0 0 3.145l1.602 3.279a1.82 1.82 0 0 1-.787 2.418l-3.224 1.71a3.555 3.555 0 0 0-1.847 2.543l-.631 3.595a1.82 1.82 0 0 1-2.054 1.498l-3.616-.513a3.56 3.56 0 0 0-2.99.972l-2.624 2.538a1.82 1.82 0 0 1-2.541 0Zm20.156 4.743a.875.875 0 0 0-.656.656l-1.5 6.505-12.414-12.414.796-.77a1.846 1.846 0 0 1 1.528-.497l3.614.512a3.567 3.567 0 0 0 4.025-2.926l.549-3.129L53.39 44.728l-6.505 1.501Z"/><path d="M41.125 21.875c0-3.143-1.127-6.18-3.178-8.562a.876.876 0 1 0-1.325 1.137 11.362 11.362 0 1 1-2.296-2.035.874.874 0 1 0 .975-1.452 13.125 13.125 0 1 0 5.824 10.912Z"/><path d="m33.053 17.773-6.818 7.18-3.265-3.72a.874.874 0 1 0-1.313 1.153l3.893 4.44a.875.875 0 0 0 .64.299h.018a.875.875 0 0 0 .634-.273l7.477-7.875a.876.876 0 0 0-.652-1.497.876.876 0 0 0-.617.293h.003Z"/></g><defs><clipPath id="clip0_1_1832"><path fill="#fff" d="M0 0h56v56H0z"/></clipPath></defs></svg>