<svg width="18" height="18" fill="none" xmlns="http://www.w3.org/2000/svg"><path fill-rule="evenodd" clip-rule="evenodd" d="M9.484 3.948a.938.938 0 0 0-.968 0l-.387.233a8.063 8.063 0 0 1-3.403 1.12l-.244.023a.188.188 0 0 0-.17.187v1.233c0 1.88.764 3.68 2.116 4.987l2.442 2.36c.072.07.188.07.26 0l2.442-2.36a6.937 6.937 0 0 0 2.116-4.987V5.51a.188.188 0 0 0-.17-.187l-.244-.023a8.063 8.063 0 0 1-3.403-1.12l-.387-.233Zm-1.548-.964a2.062 2.062 0 0 1 2.128 0l.387.233a6.937 6.937 0 0 0 2.928.964l.244.023c.674.063 1.19.63 1.19 1.307v1.233a8.063 8.063 0 0 1-2.46 5.796l-2.44 2.36a1.313 1.313 0 0 1-1.825 0l-2.442-2.36a8.063 8.063 0 0 1-2.458-5.796V5.51c0-.678.515-1.244 1.189-1.307l.244-.023a6.938 6.938 0 0 0 2.928-.964l.387-.233Z" fill="#F7F5F0"/></svg>