<svg width="1440" height="700" viewBox="0 0 1440 700" fill="none" xmlns="http://www.w3.org/2000/svg">
<g opacity="0.48">
<path d="M-2221.58 119.358C-2174.94 127.737 -1379.83 301.256 -910.748 403.884C-849.151 417.361 -785.521 416.101 -724.485 400.275C-191.78 262.151 729.991 29.9005 783.037 44.1372C839.313 59.2404 1971.96 487.005 2531.24 699" stroke="#005697" stroke-opacity="0.15"/>
<path d="M-2219.77 119.388L-1670.56 242.626C-1412.23 292.85 -1105.46 348.619 -885.972 393.708C-824.292 406.379 -760.711 405.207 -699.72 389.555C-177.419 255.517 736.393 36.2495 796.631 53.592L2542.09 691.893" stroke="#005697" stroke-opacity="0.15"/>
<path d="M-2217.97 119.414L-1672.73 246.747C-1407.1 292.571 -1082.11 341.101 -861.138 383.558C-799.39 395.422 -735.903 394.309 -674.957 378.843C-163.001 248.921 742.812 42.6044 810.22 63.0438L2552.93 684.782" stroke="#005697" stroke-opacity="0.15"/>
<path d="M-2216.16 119.444L-1674.9 250.871C-1401.97 292.303 -1058.8 333.614 -836.288 373.429C-774.487 384.487 -711.085 383.412 -650.188 368.145C-148.513 242.373 749.259 48.9716 823.813 72.4986L2563.78 677.675" stroke="#005697" stroke-opacity="0.15"/>
<path d="M-2214.35 119.473L-1677.07 254.995C-1396.85 292.043 -1035.53 326.153 -811.429 363.315C-749.591 373.57 -686.267 372.512 -625.419 357.458C-133.96 235.87 755.727 55.3479 837.404 81.9525L2574.63 670.566" stroke="#005697" stroke-opacity="0.15"/>
<path d="M-2212.55 119.502L-1706.93 251.868C-1688.49 256.695 -1669.76 260.21 -1650.82 262.297C-1367.14 293.556 -1004.94 319.843 -786.555 353.218C-724.696 362.672 -661.541 361.635 -600.745 346.809C-119.455 229.441 762.218 61.7326 850.997 91.4063L2585.48 663.458" stroke="#005697" stroke-opacity="0.15"/>
<path d="M-2210.74 119.53L-1714.18 254.344C-1692.37 260.265 -1670.12 264.348 -1647.61 266.41C-1356.86 293.056 -980.53 312.507 -761.672 343.137C-699.807 351.795 -636.832 350.76 -576.09 336.178C-104.903 223.066 768.729 68.1277 864.586 100.86L2596.32 656.35" stroke="#005697" stroke-opacity="0.15"/>
<path d="M-2208.94 119.558L-1721.26 256.76C-1696.2 263.812 -1670.56 268.426 -1644.59 270.348C-1346.61 292.409 -956.234 305.152 -736.769 333.07C-674.917 340.938 -612.119 339.883 -551.434 325.563C-90.2776 216.745 775.272 74.5331 878.179 110.313L2607.17 649.24" stroke="#005697" stroke-opacity="0.15"/>
<path d="M-2207.13 119.588L-1728.2 259.117C-1699.98 267.339 -1671.03 272.459 -1641.68 274.141C-1336.38 291.638 -932.035 297.785 -711.855 323.019C-650.032 330.104 -587.41 329.007 -526.786 314.968C-75.5831 210.485 781.84 80.9524 891.769 119.768L2618.01 642.133" stroke="#005697" stroke-opacity="0.15"/>
<path d="M-2205.33 119.617L-1735 261.413C-1703.73 270.843 -1671.52 276.448 -1638.88 277.8C-1326.15 290.758 -907.914 290.406 -686.921 312.981C-625.144 319.291 -562.697 318.129 -502.137 304.392C-60.8077 204.286 788.443 87.3832 905.362 129.222L2628.86 635.024" stroke="#005697" stroke-opacity="0.15"/>
<path d="M-2203.52 119.644L-1741.67 263.648C-1707.43 274.323 -1672.04 280.397 -1636.19 281.342C-1315.93 289.78 -883.866 283.017 -661.972 302.955C-600.26 308.5 -537.986 307.249 -477.495 293.837C-45.9539 198.152 795.075 93.8268 918.952 138.674L2639.71 627.915" stroke="#005697" stroke-opacity="0.15"/>
<path d="M-2201.72 119.674L-1748.21 265.822C-1711.1 277.782 -1672.57 284.312 -1633.58 284.781C-1305.74 288.72 -859.876 275.622 -637.001 292.943C-575.372 297.733 -513.271 296.371 -452.853 283.307C-31.0103 192.091 801.746 100.287 932.545 148.129L2650.55 620.808" stroke="#005697" stroke-opacity="0.15"/>
<path d="M-2199.91 119.704L-1754.64 267.935C-1714.74 281.216 -1673.12 288.195 -1631.07 288.127C-1295.56 287.586 -835.94 268.22 -612.012 282.943C-550.486 286.988 -488.557 285.492 -428.218 272.802C-15.9788 186.105 808.45 106.762 946.135 157.584L2661.4 613.7" stroke="#005697" stroke-opacity="0.15"/>
<path d="M-2198.11 119.732L-1760.95 269.983C-1718.34 284.625 -1673.69 292.045 -1628.64 291.388C-1285.4 286.384 -812.042 260.81 -586.998 272.951C-525.594 276.264 -463.836 274.611 -403.582 262.324C-0.846571 180.198 815.197 113.251 959.728 167.037L2672.25 606.591" stroke="#005697" stroke-opacity="0.15"/>
<path d="M-2196.3 119.76L-1767.15 271.97C-1721.92 288.01 -1674.27 295.868 -1626.3 294.576C-1275.27 285.125 -788.179 253.395 -561.964 262.97C-500.701 265.563 -439.114 263.731 -378.953 251.878C14.3846 174.378 821.983 119.76 973.316 176.491L2683.09 599.482" stroke="#005697" stroke-opacity="0.15"/>
<path d="M-2194.5 119.79L-1773.25 273.893C-1725.47 291.372 -1674.86 299.666 -1624.02 297.699C-1265.15 283.816 -764.334 245.974 -536.899 252.999C-475.8 254.886 -414.382 252.853 -354.323 241.466C29.7294 168.651 828.819 126.287 986.91 185.946L2693.94 592.375" stroke="#005697" stroke-opacity="0.15"/>
<path d="M-2192.69 119.818L-1779.25 275.751C-1728.99 294.705 -1675.46 303.438 -1621.81 300.761C-1255.05 282.458 -740.503 238.545 -511.809 243.033C-450.894 244.229 -389.645 241.974 -329.699 231.09C45.1869 163.022 835.7 132.833 1000.5 195.398L2704.78 585.266" stroke="#005697" stroke-opacity="0.15"/>
<path d="M-2190.89 119.848L-1785.15 277.545C-1732.49 298.015 -1676.08 307.19 -1619.68 303.772C-1244.97 281.061 -716.674 231.111 -486.684 233.076C-425.978 233.595 -364.896 231.1 -305.075 220.757C43.61 160.467 770.204 141.2 986.044 196.191C1005.26 201.088 1023.82 206.987 1043.19 211.238L2715.63 578.158" stroke="#005697" stroke-opacity="0.15"/>
<path d="M-2189.08 119.877L-1790.97 279.273C-1735.96 301.297 -1676.79 310.925 -1617.68 306.739C-1234.97 279.633 -692.854 223.667 -461.53 223.124C-401.056 222.982 -340.139 220.228 -280.458 210.468C59.1385 154.928 775.486 146.71 997.634 204.875C1018.2 210.26 1038.13 216.502 1058.94 220.871L2726.48 571.05" stroke="#005697" stroke-opacity="0.15"/>
<path d="M-2187.28 119.904L-1796.7 280.934C-1739.41 304.551 -1677.49 314.642 -1615.73 309.664C-1224.98 278.17 -669.008 216.213 -436.333 213.174C-376.118 212.388 -315.363 209.361 -255.839 200.228C74.8607 149.485 781.025 152.176 1009.24 213.543C1031.13 219.431 1052.45 226.001 1074.68 230.46L2737.32 563.94" stroke="#005697" stroke-opacity="0.15"/>
<path d="M-2185.47 119.934L-1802.34 282.53C-1742.84 307.779 -1678.21 318.343 -1613.84 312.553C-1215 276.68 -645.134 208.751 -411.1 203.23C-351.171 201.816 -290.574 198.504 -231.228 190.045C90.7686 144.152 786.797 157.61 1020.85 222.198C1044.06 228.604 1066.76 235.489 1090.42 240.009L2748.17 556.833" stroke="#005697" stroke-opacity="0.15"/>
<path d="M-2183.67 119.962L-1807.9 284.057C-1746.25 310.977 -1678.93 322.028 -1611.99 315.407C-1205.01 275.158 -621.209 201.273 -385.817 193.285C-326.205 191.262 -265.846 187.67 -206.703 179.934C106.745 138.933 792.774 163.009 1032.46 230.837C1056.98 237.776 1081.08 244.96 1106.15 249.514L2759.02 549.724" stroke="#005697" stroke-opacity="0.15"/>
<path d="M-2181.86 119.991L-1813.38 285.517C-1749.64 314.148 -1679.66 325.698 -1610.19 318.231C-1195.03 273.611 -597.226 193.78 -360.485 183.341C-301.223 180.727 -241.267 176.878 -182.358 169.909C122.655 133.828 798.913 168.376 1044.08 239.463C1069.9 246.949 1095.4 254.419 1121.89 258.978L2769.86 542.615" stroke="#005697" stroke-opacity="0.15"/>
<path d="M-2180.05 120.02L-1818.78 286.91C-1753.01 317.291 -1680.39 329.355 -1608.42 321.029C-1185.02 272.039 -573.161 186.269 -335.093 173.395C-276.217 170.211 -216.682 166.104 -158.041 159.957C138.716 128.85 805.246 173.727 1055.71 248.077C1082.82 256.124 1109.72 263.864 1137.63 268.402L2780.71 535.508" stroke="#005697" stroke-opacity="0.15"/>
<path d="M-2178.25 120.048L-1824.1 288.231C-1756.36 320.402 -1681.13 332.998 -1606.7 323.798C-1175 270.439 -549.002 178.732 -309.64 163.442C-251.192 159.709 -192.095 155.349 -133.765 150.081C154.914 124.006 811.757 179.065 1067.34 256.676C1095.73 265.298 1124.03 273.294 1153.37 277.781L2791.55 528.398" stroke="#005697" stroke-opacity="0.15"/>
<path d="M-2176.44 120.078L-1829.35 289.486C-1759.69 323.485 -1681.86 336.629 -1605 326.547C-1164.94 268.815 -524.717 171.17 -284.109 153.485C-226.135 149.224 -167.498 144.623 -109.529 140.291C171.254 119.309 818.446 184.398 1078.97 265.265C1108.64 274.474 1138.36 282.711 1169.11 287.12L2802.4 521.291" stroke="#005697" stroke-opacity="0.15"/>
<path d="M-2174.64 120.107L-1834.53 290.67C-1763.01 326.536 -1682.59 340.248 -1603.34 329.273C-1154.85 267.164 -500.287 163.573 -258.497 143.517C-201.05 138.751 -142.898 133.929 -85.3499 130.593C187.714 114.763 825.298 189.728 1090.61 273.841C1121.55 283.651 1152.68 292.113 1184.85 296.416L2813.25 514.183" stroke="#005697" stroke-opacity="0.15"/>
<path d="M-2172.83 120.135L-1839.63 291.784C-1766.3 329.556 -1683.33 343.855 -1601.7 331.979C-1144.71 265.486 -475.671 155.935 -232.783 133.535C-175.924 128.291 -118.287 123.277 -61.2321 120.996C204.289 110.378 832.314 195.06 1102.24 282.405C1134.45 292.827 1167.01 301.501 1200.6 305.669L2824.09 507.074" stroke="#005697" stroke-opacity="0.15"/>
<path d="M-2171.03 120.164L-1844.66 292.828C-1769.58 332.545 -1684.06 347.451 -1600.09 334.667C-1134.49 263.777 -450.836 148.246 -206.958 123.535C-150.759 117.841 -93.673 112.676 -37.1989 111.506C220.948 106.158 839.477 200.396 1113.88 290.958C1147.35 302.005 1181.34 310.874 1216.36 314.879L2834.94 499.966" stroke="#005697" stroke-opacity="0.15"/>
<path d="M-2169.22 120.194L-1849.61 293.802C-1772.84 335.503 -1684.78 351.037 -1598.5 337.338C-1124.2 262.038 -425.724 140.496 -180.994 113.513C-125.542 107.399 -69.0556 102.139 -13.2672 102.133C237.666 102.107 846.783 205.739 1125.52 299.501C1160.25 311.184 1195.67 320.234 1232.12 324.046L2845.79 492.858" stroke="#005697" stroke-opacity="0.15"/>
<path d="M-2167.42 120.221L-1854.5 294.702C-1776.09 338.425 -1685.51 354.61 -1596.93 339.991C-1113.79 260.258 -400.275 132.667 -154.873 103.459C-100.27 96.9598 -44.4488 91.6731 10.5264 92.8771C254.389 98.2182 854.212 211.084 1137.15 308.03C1173.14 320.36 1210.01 329.576 1247.88 333.167L2856.63 485.748" stroke="#005697" stroke-opacity="0.15"/>
<path d="M-2165.61 120.25L-1859.32 295.534C-1779.31 341.318 -1686.23 358.175 -1595.37 342.631C-1103.25 258.439 -374.4 124.745 -128.552 93.3693C-74.9259 86.5253 -19.9008 81.3004 34.1053 83.746C270.985 94.4727 861.733 216.427 1148.79 316.551C1186.03 329.54 1224.35 338.905 1263.64 342.247L2867.48 478.641" stroke="#005697" stroke-opacity="0.15"/>
<path d="M-2163.81 120.279L-1864.07 296.294C-1782.53 344.176 -1686.94 361.729 -1593.83 345.256C-1092.54 256.567 -347.99 116.7 -101.995 83.2299C-49.5041 76.0879 4.30923 71.0251 57.1558 74.7126C286.924 90.7451 869.203 221.721 1160.42 325.061C1198.91 338.72 1238.69 348.219 1279.41 351.282L2878.32 471.532" stroke="#005697" stroke-opacity="0.15"/>
<path d="M-2162 120.308L-1868.74 296.984C-1785.72 347 -1687.65 365.274 -1592.3 347.867C-1081.59 254.634 -320.881 108.497 -75.1331 73.027C-23.9799 65.6438 28.4388 60.8475 79.887 65.7715C302.531 87.08 876.693 226.988 1172.06 333.562C1211.79 347.899 1253.03 357.518 1295.19 360.272L2889.17 464.424" stroke="#005697" stroke-opacity="0.15"/>
<path d="M-2160.2 120.337L-1873.35 297.602C-1788.9 349.79 -1688.35 368.808 -1590.78 350.465C-1070.35 252.621 -292.858 100.086 -47.8878 62.7404C1.66115 55.1868 52.4394 50.7746 102.186 56.8969C317.593 83.4076 884.134 232.208 1183.69 342.052C1224.67 357.08 1267.38 366.801 1310.96 369.217L2900.02 457.315" stroke="#005697" stroke-opacity="0.15"/>
<path d="M-2158.39 120.364L-1877.88 298.148C-1792.05 352.545 -1689.04 372.332 -1589.27 353.05C-1058.69 250.505 -263.592 91.3911 -20.1347 52.341C27.4505 44.7084 76.2548 40.8055 123.902 48.0408C331.807 79.6112 891.432 237.343 1195.32 350.532C1237.54 366.259 1281.73 376.068 1326.74 378.116L2910.86 450.206" stroke="#005697" stroke-opacity="0.15"/>
<path d="M-2156.59 120.394L-1882.35 298.626C-1795.2 355.266 -1689.72 375.848 -1587.77 355.625C-1046.47 248.25 -232.584 82.3008 8.29842 41.7895C53.416 34.2017 99.7878 30.9307 144.8 39.1226C344.679 75.4994 898.425 242.335 1206.94 359.004C1250.41 375.441 1296.08 385.32 1342.52 386.971L2921.71 443.099" stroke="#005697" stroke-opacity="0.15"/>
<path d="M-2154.78 120.424L-1886.74 299.033C-1798.32 357.952 -1690.39 379.355 -1586.27 358.188C-1033.1 245.733 -198.135 72.445 38.066 30.9543C79.9753 23.5926 122.915 21.1135 164.529 29.9949C355.411 70.7341 904.861 247.078 1218.57 367.467C1263.27 384.623 1310.44 394.557 1358.31 395.78L2932.56 435.991" stroke="#005697" stroke-opacity="0.15"/>
<path d="M-2152.98 120.451L-1891.07 299.367C-1801.43 360.6 -1691.06 382.85 -1584.78 360.737C-1017.75 242.758 -157.592 61.2261 70.0294 19.6426C107.569 12.7846 145.448 11.2807 182.504 20.3974C362.557 64.6944 910.264 251.379 1230.19 375.918C1276.13 393.802 1324.79 403.775 1374.09 404.54L2943.4 428.881" stroke="#005697" stroke-opacity="0.15"/>
<path d="M-2151.17 120.48L-1895.32 299.635C-1804.52 363.215 -1691.7 386.338 -1583.28 363.278C-999.597 239.134 -108.422 48.051 104.627 7.72841C135.798 1.82891 167.055 1.28823 197.609 9.82503C362.962 56.0245 913.626 254.826 1241.81 384.363C1288.99 402.984 1339.16 412.979 1389.87 413.256L2954.25 421.773" stroke="#005697" stroke-opacity="0.15"/>
</g>
</svg>
