<svg width="23" height="23" viewBox="0 0 23 23" fill="none" xmlns="http://www.w3.org/2000/svg">
<path fill-rule="evenodd" clip-rule="evenodd" d="M12.5941 22.9507C16.1299 22.616 19.3472 20.6205 21.2617 17.5748C23.4502 14.0933 23.5822 9.58123 21.601 5.97867C20.7099 4.35818 19.3801 2.91031 17.8522 1.89687C16.3843 0.923239 14.7659 0.320641 12.909 0.0563297C12.384 -0.0183716 10.6059 -0.0189114 10.0753 0.055521C7.23884 0.453356 4.8945 1.67317 2.98184 3.74641C1.41367 5.44618 0.406939 7.62479 0.0591125 10.0713C-0.0295429 10.6947 -0.0160923 12.3319 0.0834923 13.0395C0.181458 13.7358 0.446072 14.8064 0.673307 15.426C0.876165 15.979 1.42681 17.1083 1.7136 17.5594C2.59569 18.9468 3.8284 20.2103 5.17252 21.1046C5.77044 21.5024 6.93343 22.0852 7.59966 22.3208C9.20543 22.8888 10.9387 23.1074 12.5941 22.9507ZM10.2031 21.7625C8.62457 21.5556 7.05941 20.9799 5.80224 20.1436C3.50356 18.6147 1.87831 16.2218 1.35232 13.5918C1.17451 12.7027 1.13277 12.1859 1.15909 11.1972C1.20204 9.58159 1.49967 8.36479 2.20486 6.92185C3.65131 3.96219 6.46685 1.85316 9.73795 1.27907C10.4465 1.15472 11.8828 1.10736 12.5733 1.18562C14.6279 1.4184 16.5735 2.23984 18.1101 3.52329C20.1429 5.22118 21.4213 7.55427 21.7681 10.199C21.8552 10.8637 21.8576 12.0723 21.773 12.7489C21.2775 16.7152 18.5478 20.0539 14.7757 21.3072C14.0935 21.5338 13.4835 21.6759 12.819 21.7629C12.1783 21.8467 10.8442 21.8465 10.2031 21.7625ZM13.5253 15.9975C13.7791 15.8401 13.8668 15.4066 13.6889 15.1882C13.6558 15.1474 12.7077 14.3077 11.5821 13.322C10.4565 12.3363 9.53554 11.511 9.53554 11.4879C9.53554 11.4649 10.4565 10.6395 11.5821 9.65386C12.7077 8.66818 13.657 7.82695 13.6916 7.78445C13.7263 7.74195 13.7642 7.60685 13.776 7.48421C13.7964 7.27215 13.7886 7.25232 13.6172 7.08093C13.4617 6.92545 13.4098 6.90067 13.2404 6.90081C13.1256 6.9009 12.9879 6.93629 12.909 6.98594C12.7245 7.10215 8.25978 11.0182 8.14396 11.1655C8.01793 11.3257 8.01793 11.6502 8.14396 11.8104C8.25978 11.9576 12.7245 15.8737 12.909 15.9899C13.0755 16.0948 13.3627 16.0983 13.5253 15.9975Z" fill="#1F4C84"/>
</svg>
