<svg width="23" height="23" viewBox="0 0 23 23" fill="none" xmlns="http://www.w3.org/2000/svg">
<path fill-rule="evenodd" clip-rule="evenodd" d="M10.4059 0.0493057C6.87014 0.383999 3.6528 2.37947 1.73829 5.42517C-0.450187 8.90671 -0.582247 13.4188 1.39897 17.0213C2.2901 18.6418 3.61988 20.0897 5.14779 21.1031C6.61569 22.0768 8.23415 22.6794 10.091 22.9437C10.616 23.0184 12.3941 23.0189 12.9247 22.9445C15.7612 22.5466 18.1055 21.3268 20.0182 19.2536C21.5863 17.5538 22.5931 15.3752 22.9409 12.9287C23.0295 12.3053 23.0161 10.6681 22.9165 9.96048C22.8185 9.2642 22.5539 8.19356 22.3267 7.57396C22.1238 7.02097 21.5732 5.89173 21.2864 5.44064C20.4043 4.05316 19.1716 2.78972 17.8275 1.89542C17.2296 1.49763 16.0666 0.914821 15.4003 0.679205C13.7946 0.111189 12.0613 -0.107382 10.4059 0.0493057ZM12.7969 1.23751C14.3754 1.44438 15.9406 2.02014 17.1978 2.85637C19.4964 4.38529 21.1217 6.77825 21.6477 9.40816C21.8255 10.2973 21.8672 10.8141 21.8409 11.8028C21.798 13.4184 21.5003 14.6352 20.7951 16.0781C19.3487 19.0378 16.5331 21.1468 13.2621 21.7209C12.5535 21.8453 11.1172 21.8926 10.4267 21.8144C8.3721 21.5816 6.42647 20.7602 4.88987 19.4767C2.85707 17.7788 1.57866 15.4457 1.23191 12.801C1.14479 12.1363 1.1424 10.9277 1.22697 10.2511C1.72246 6.28484 4.45222 2.94614 8.22434 1.69277C8.90646 1.46615 9.51647 1.32408 10.181 1.23715C10.8217 1.15327 12.1558 1.15345 12.7969 1.23751ZM9.47473 7.00253C9.22087 7.15994 9.1332 7.59339 9.31105 7.81183C9.3442 7.85257 10.2923 8.69232 11.4179 9.678C12.5435 10.6637 13.4645 11.489 13.4645 11.5121C13.4645 11.5351 12.5435 12.3605 11.4179 13.3461C10.2923 14.3318 9.34299 15.1731 9.30835 15.2156C9.27372 15.2581 9.23575 15.3932 9.22397 15.5158C9.20359 15.7278 9.21138 15.7477 9.38284 15.9191C9.53833 16.0745 9.59019 16.0993 9.75959 16.0992C9.87437 16.0991 10.0121 16.0637 10.091 16.0141C10.2755 15.8978 14.7402 11.9818 14.856 11.8345C14.9821 11.6743 14.9821 11.3498 14.856 11.1896C14.7402 11.0424 10.2755 7.1263 10.091 7.01008C9.92448 6.90521 9.63729 6.9017 9.47473 7.00253Z" fill="#1F4C84"/>
</svg>
