<svg width="19" height="18" viewBox="0 0 19 18" fill="none" xmlns="http://www.w3.org/2000/svg">
<path d="M10.6512 2.15649C9.73125 2.15649 8.84896 2.52195 8.19844 3.17247C7.54793 3.82298 7.18247 4.70527 7.18247 5.62524V7.55649H5.32622C5.23302 7.55649 5.15747 7.63205 5.15747 7.72524V10.2752C5.15747 10.3684 5.23302 10.444 5.32622 10.444H7.18247V15.6752C7.18247 15.7684 7.25802 15.844 7.35122 15.844H9.90122C9.99442 15.844 10.07 15.7684 10.07 15.6752V10.444H11.9427C12.0201 10.444 12.0876 10.3913 12.1064 10.3162L12.7439 7.76617C12.7705 7.65967 12.6899 7.55649 12.5802 7.55649H10.07V5.62524C10.07 5.47109 10.1312 5.32324 10.2402 5.21424C10.3492 5.10523 10.4971 5.04399 10.6512 5.04399H12.6012C12.6944 5.04399 12.77 4.96844 12.77 4.87524V2.32524C12.77 2.23205 12.6944 2.15649 12.6012 2.15649H10.6512Z" fill="white"/>
</svg>
