<svg width="109" height="20" viewBox="0 0 109 20" fill="none" xmlns="http://www.w3.org/2000/svg">
<g clip-path="url(#clip0_1_1852)">
<path d="M12.525 8.33317L10.5 1.6665L8.47502 8.33317H2.16669L7.31669 12.0082L5.35835 18.3332L10.5 14.4248L15.65 18.3332L13.6917 12.0082L18.8334 8.33317H12.525Z" fill="#FBBC04"/>
</g>
<g clip-path="url(#clip1_1_1852)">
<path d="M34.525 8.33317L32.5 1.6665L30.475 8.33317H24.1667L29.3167 12.0082L27.3584 18.3332L32.5 14.4248L37.65 18.3332L35.6917 12.0082L40.8334 8.33317H34.525Z" fill="#FBBC04"/>
</g>
<g clip-path="url(#clip2_1_1852)">
<path d="M56.525 8.33317L54.5 1.6665L52.475 8.33317H46.1667L51.3167 12.0082L49.3584 18.3332L54.5 14.4248L59.65 18.3332L57.6917 12.0082L62.8334 8.33317H56.525Z" fill="#FBBC04"/>
</g>
<g clip-path="url(#clip3_1_1852)">
<path d="M78.525 8.33317L76.5 1.6665L74.475 8.33317H68.1667L73.3167 12.0082L71.3584 18.3332L76.5 14.4248L81.65 18.3332L79.6917 12.0082L84.8334 8.33317H78.525Z" fill="#FBBC04"/>
</g>
<g clip-path="url(#clip4_1_1852)">
<path d="M100.525 8.33317L98.5 1.6665L96.475 8.33317H90.1667L95.3167 12.0082L93.3584 18.3332L98.5 14.4248L103.65 18.3332L101.692 12.0082L106.833 8.33317H100.525Z" fill="#FBBC04"/>
</g>
<defs>
<clipPath id="clip0_1_1852">
<rect width="20" height="20" fill="white" transform="translate(0.5)"/>
</clipPath>
<clipPath id="clip1_1_1852">
<rect width="20" height="20" fill="white" transform="translate(22.5)"/>
</clipPath>
<clipPath id="clip2_1_1852">
<rect width="20" height="20" fill="white" transform="translate(44.5)"/>
</clipPath>
<clipPath id="clip3_1_1852">
<rect width="20" height="20" fill="white" transform="translate(66.5)"/>
</clipPath>
<clipPath id="clip4_1_1852">
<rect width="20" height="20" fill="white" transform="translate(88.5)"/>
</clipPath>
</defs>
</svg>
