<svg width="18" height="18" viewBox="0 0 18 18" fill="none" xmlns="http://www.w3.org/2000/svg">
<g clip-path="url(#clip0_1_924)">
<path d="M16.7399 8.13363L16.2738 6.26912C16.4012 6.24205 16.4969 6.12898 16.4969 5.99353V5.69291C16.4969 5.0402 15.9658 4.5092 15.3131 4.5092H13.19V3.88911C13.19 3.56792 12.9287 3.30664 12.6075 3.30664H1.78495C1.46377 3.30664 1.20248 3.56792 1.20248 3.88911V8.99977C1.20248 9.15541 1.32866 9.28162 1.48433 9.28162C1.63997 9.28162 1.76618 9.15545 1.76618 8.99977V3.88911C1.76618 3.87874 1.77458 3.87034 1.78495 3.87034H12.6075C12.6179 3.87034 12.6263 3.87874 12.6263 3.88911V8.99984C12.6263 9.15548 12.7524 9.28169 12.9081 9.28169C13.0637 9.28169 13.19 9.15552 13.19 8.99984V8.68034H16.5146C16.5149 8.68034 16.5151 8.68041 16.5154 8.68041C16.5157 8.68041 16.5159 8.68038 16.5162 8.68038C16.9253 8.68066 17.2727 8.94918 17.392 9.3192H16.5156C16.36 9.3192 16.2337 9.44538 16.2337 9.60105V10.2023C16.2337 10.6892 16.6299 11.0854 17.1168 11.0854H17.4363V12.3254H16.6993C16.4572 11.6264 15.7927 11.1229 15.0125 11.1229C14.2322 11.1229 13.5676 11.6264 13.3256 12.3254H13.1899V10.2023C13.1899 10.0466 13.0637 9.92041 12.908 9.92041C12.7524 9.92041 12.6262 10.0466 12.6262 10.2023V12.3254H6.77872C6.53664 11.6264 5.87215 11.1229 5.09186 11.1229C4.31156 11.1229 3.64704 11.6264 3.40499 12.3254H1.78495C1.77458 12.3254 1.76618 12.317 1.76618 12.3066V11.6866H2.98747C3.14311 11.6866 3.26932 11.5604 3.26932 11.4047C3.26932 11.249 3.14314 11.1229 2.98747 11.1229H0.281848C0.126211 11.1229 0 11.249 0 11.4047C0 11.5604 0.126176 11.6866 0.281848 11.6866H1.20252V12.3066C1.20252 12.6278 1.4638 12.8891 1.78499 12.8891H3.30739C3.30732 12.8953 3.3069 12.9016 3.3069 12.9078C3.3069 13.8921 4.10766 14.6928 5.09186 14.6928C6.07606 14.6928 6.87681 13.8921 6.87681 12.9078C6.87681 12.9015 6.87639 12.8953 6.87632 12.8891H13.228C13.2279 12.8953 13.2275 12.9016 13.2275 12.9078C13.2275 13.8921 14.0283 14.6928 15.0125 14.6928C15.9967 14.6928 16.7974 13.8921 16.7974 12.9078C16.7974 12.9015 16.797 12.8953 16.7969 12.8891H17.7181C17.8738 12.8891 18 12.7629 18 12.6072V9.60098C18 8.85876 17.4524 8.24209 16.7399 8.13363ZM13.19 5.07286H15.3131C15.655 5.07286 15.9332 5.35101 15.9332 5.69291V5.71168H13.19V5.07286ZM13.19 8.11668V6.27534H15.6943L16.1547 8.11668H13.19ZM5.09186 14.1292C4.41844 14.1292 3.87056 13.5814 3.87056 12.9079C3.87056 12.2345 4.41844 11.6866 5.09186 11.6866C5.76527 11.6866 6.31315 12.2345 6.31315 12.9079C6.31315 13.5814 5.76527 14.1292 5.09186 14.1292ZM15.0125 14.1292C14.3391 14.1292 13.7912 13.5814 13.7912 12.9079C13.7912 12.2345 14.3391 11.6866 15.0125 11.6866C15.6859 11.6866 16.2338 12.2345 16.2338 12.9079C16.2338 13.5814 15.6859 14.1292 15.0125 14.1292ZM17.4363 10.5217H17.1169C16.9408 10.5217 16.7975 10.3784 16.7975 10.2023V9.88283H17.4363V10.5217H17.4363Z" fill="white"/>
<path d="M5.09187 12.3257C4.77068 12.3257 4.5094 12.587 4.5094 12.9082C4.5094 13.2293 4.77068 13.4906 5.09187 13.4906C5.41306 13.4906 5.67434 13.2293 5.67434 12.9082C5.67434 12.587 5.41306 12.3257 5.09187 12.3257Z" fill="white"/>
<path d="M15.0125 12.3257C14.6913 12.3257 14.4301 12.587 14.4301 12.9082C14.4301 13.2293 14.6913 13.4906 15.0125 13.4906C15.3337 13.4906 15.595 13.2293 15.595 12.9082C15.595 12.587 15.3337 12.3257 15.0125 12.3257Z" fill="white"/>
<path d="M11.7056 11.123H7.49681C7.34118 11.123 7.21497 11.2492 7.21497 11.4049C7.21497 11.5606 7.34114 11.6867 7.49681 11.6867H11.7056C11.8612 11.6867 11.9874 11.5606 11.9874 11.4049C11.9874 11.2492 11.8613 11.123 11.7056 11.123Z" fill="white"/>
<path d="M4.49057 9.9209H0.883044C0.727407 9.9209 0.601196 10.0471 0.601196 10.2027C0.601196 10.3584 0.727372 10.4846 0.883044 10.4846H4.49057C4.6462 10.4846 4.77242 10.3584 4.77242 10.2027C4.77242 10.0471 4.6462 9.9209 4.49057 9.9209Z" fill="white"/>
<path d="M9.80048 6.09522C9.69044 5.98518 9.51196 5.98518 9.40192 6.09526L6.89556 8.60158L5.59172 7.29774C5.48164 7.18767 5.30319 7.18767 5.19315 7.29774C5.08308 7.40781 5.08308 7.58623 5.19315 7.69631L6.69629 9.19945C6.75131 9.2545 6.82345 9.28199 6.89556 9.28199C6.96766 9.28199 7.03984 9.2545 7.09482 9.19945L9.80045 6.49382C9.91052 6.38371 9.91052 6.20529 9.80048 6.09522Z" fill="white"/>
</g>
<defs>
<clipPath id="clip0_1_924">
<rect width="18" height="18" fill="white"/>
</clipPath>
</defs>
</svg>
