<svg width="60" height="61" viewBox="0 0 60 61" fill="none" xmlns="http://www.w3.org/2000/svg">
<path d="M41.3674 40.826C40.9051 40.3731 40.1631 40.3807 39.7101 40.8429L39.6768 40.8769C39.2239 41.3392 39.2315 42.0811 39.6938 42.5341C39.9219 42.7576 40.218 42.8689 40.5139 42.8689C40.8178 42.8689 41.1215 42.7514 41.3511 42.5173L41.3844 42.4833C41.8373 42.021 41.8297 41.2791 41.3674 40.826Z" fill="white"/>
<path d="M53.9736 28.5404H50.8595V25.4263C50.8595 24.779 50.3348 24.2544 49.6876 24.2544C49.0403 24.2544 48.5157 24.779 48.5157 25.4263V28.5404H45.4016C44.7543 28.5404 44.2297 29.0651 44.2297 29.7123C44.2297 30.3595 44.7543 30.8842 45.4016 30.8842H48.5157V33.9983C48.5157 34.6455 49.0403 35.1702 49.6876 35.1702C50.3348 35.1702 50.8595 34.6455 50.8595 33.9983V30.8842H53.9736C54.6208 30.8842 55.1455 30.3595 55.1455 29.7123C55.1455 29.0651 54.6208 28.5404 53.9736 28.5404Z" fill="white"/>
<path d="M53.5189 20.1381C52.4244 12.0486 45.6617 5.99609 37.6347 5.99609C33.5827 5.99609 29.7923 7.50653 26.836 10.2751C23.8796 7.50653 20.0891 5.99609 16.0373 5.99609C7.19427 5.99609 0 13.3617 0 22.4153C0 24.204 0.521837 26.209 1.56 28.4222H1.17188C0.52465 28.4222 0 28.9468 0 29.5941C0 30.2413 0.52465 30.7659 1.17188 30.7659H2.80805C4.99677 34.4714 8.45802 38.6851 13.1776 43.378C19.5737 49.7379 26.0594 54.7136 26.1242 54.7632C26.3342 54.9238 26.5851 55.0041 26.836 55.0041C27.0869 55.0041 27.3377 54.9238 27.5478 54.7632C27.5972 54.7253 32.5576 50.9216 38.0546 45.7389C38.5256 45.2949 38.5474 44.5532 38.1034 44.0823C37.6595 43.6115 36.9178 43.5896 36.4468 44.0336C32.2545 47.9862 28.3842 51.1202 26.8361 52.3445C24.9965 50.8891 19.8752 46.7344 14.8135 41.6994C10.7611 37.6683 7.65892 33.9947 5.56161 30.7659H16.053C16.5757 30.7659 17.0352 30.4197 17.1794 29.9173L19.2269 22.7803L24.8969 40.9465C25.0497 41.4359 25.5029 41.7693 26.0156 41.7693C26.5283 41.7693 26.9814 41.4359 27.1341 40.9465L30.2742 30.8833H35.5059C36.1531 30.8833 36.6778 30.3586 36.6778 29.7114C36.6778 29.0641 36.1531 28.5395 35.5059 28.5395H29.4122C28.8995 28.5395 28.4463 28.8728 28.2936 29.3623L26.0152 36.6637L20.2981 18.3465C20.1439 17.8523 19.6847 17.5167 19.1658 17.5239C18.6482 17.5298 18.1957 17.8748 18.0529 18.3725L15.1697 28.4223H4.1747C2.96333 26.1353 2.34375 24.1195 2.34375 22.4153C2.34375 14.654 8.48662 8.33985 16.0373 8.33985C19.8323 8.33985 23.3615 9.89985 25.9747 12.7323C26.1966 12.9727 26.5088 13.1095 26.836 13.1095C27.1632 13.1095 27.4755 12.9727 27.6973 12.7323C30.3105 9.89985 33.8397 8.33985 37.6347 8.33985C44.1629 8.33985 49.713 13.0477 51.0322 19.4873C50.5919 19.4298 50.1432 19.3997 49.6875 19.3997C44.0012 19.3997 39.375 24.0259 39.375 29.7122C39.375 35.3985 44.0012 40.0247 49.6875 40.0247C55.3738 40.0247 60 35.3985 60 29.7122C60.0001 25.3791 57.3136 21.6621 53.5189 20.1381ZM49.6876 37.681C45.2936 37.681 41.7188 34.1061 41.7188 29.7122C41.7188 25.3182 45.2936 21.7434 49.6876 21.7434C54.0816 21.7434 57.6564 25.3182 57.6564 29.7122C57.6564 34.1061 54.0816 37.681 49.6876 37.681Z" fill="white"/>
</svg>
