<svg width="19" height="18" viewBox="0 0 19 18" fill="none" xmlns="http://www.w3.org/2000/svg">
<path d="M9.00124 6.56266C7.65504 6.56266 6.56374 7.65396 6.56374 9.00016C6.56374 10.3464 7.65504 11.4377 9.00124 11.4377C10.3474 11.4377 11.4387 10.3464 11.4387 9.00016C11.4387 7.65396 10.3474 6.56266 9.00124 6.56266Z" fill="white"/>
<path fill-rule="evenodd" clip-rule="evenodd" d="M5.07839 2.31126C7.66448 2.02222 10.338 2.02222 12.9241 2.31126C14.3479 2.47039 15.4963 3.59222 15.6634 5.02101C15.9726 7.66476 15.9726 10.3355 15.6634 12.9793C15.4963 14.4081 14.3479 15.5299 12.9241 15.6891C10.338 15.9781 7.66448 15.9781 5.07839 15.6891C3.65459 15.5299 2.5062 14.4081 2.33909 12.9793C2.02988 10.3355 2.02988 7.66476 2.33909 5.02101C2.5062 3.59222 3.65459 2.47039 5.07839 2.31126ZM12.7512 4.50016C12.337 4.50016 12.0012 4.83594 12.0012 5.25016C12.0012 5.66437 12.337 6.00016 12.7512 6.00016C13.1654 6.00016 13.5012 5.66437 13.5012 5.25016C13.5012 4.83594 13.1654 4.50016 12.7512 4.50016ZM5.43874 9.00016C5.43874 7.03264 7.03372 5.43766 9.00124 5.43766C10.9688 5.43766 12.5637 7.03264 12.5637 9.00016C12.5637 10.9677 10.9688 12.5627 9.00124 12.5627C7.03372 12.5627 5.43874 10.9677 5.43874 9.00016Z" fill="white"/>
</svg>
