<svg width="14" height="14" viewBox="0 0 14 14" fill="none" xmlns="http://www.w3.org/2000/svg">
<path d="M7.00124 4.56266C5.65504 4.56266 4.56374 5.65396 4.56374 7.00016C4.56374 8.34635 5.65504 9.43766 7.00124 9.43766C8.34743 9.43766 9.43874 8.34635 9.43874 7.00016C9.43874 5.65396 8.34743 4.56266 7.00124 4.56266Z" fill="white"/>
<path fill-rule="evenodd" clip-rule="evenodd" d="M3.07839 0.311258C5.66448 0.022224 8.33801 0.022224 10.9241 0.311258C12.3479 0.470388 13.4963 1.59222 13.6634 3.02101C13.9726 5.66476 13.9726 8.33555 13.6634 10.9793C13.4963 12.4081 12.3479 13.5299 10.9241 13.6891C8.33801 13.9781 5.66448 13.9781 3.07839 13.6891C1.65459 13.5299 0.506196 12.4081 0.339086 10.9793C0.029875 8.33555 0.029875 5.66476 0.339086 3.02101C0.506196 1.59222 1.65459 0.470388 3.07839 0.311258ZM10.7512 2.50016C10.337 2.50016 10.0012 2.83594 10.0012 3.25016C10.0012 3.66437 10.337 4.00016 10.7512 4.00016C11.1654 4.00016 11.5012 3.66437 11.5012 3.25016C11.5012 2.83594 11.1654 2.50016 10.7512 2.50016ZM3.43874 7.00016C3.43874 5.03264 5.03372 3.43766 7.00124 3.43766C8.96875 3.43766 10.5637 5.03264 10.5637 7.00016C10.5637 8.96767 8.96875 10.5627 7.00124 10.5627C5.03372 10.5627 3.43874 8.96767 3.43874 7.00016Z" fill="white"/>
</svg>
