<svg width="61" height="60" viewBox="0 0 61 60" fill="none" xmlns="http://www.w3.org/2000/svg">
<g clip-path="url(#clip0_1_1789)">
<path d="M30.4991 23.436C27.3583 23.436 24.8031 25.9881 24.8031 29.1251C24.8031 32.2622 27.3583 34.8142 30.4991 34.8142C33.6398 34.8142 36.195 32.2622 36.195 29.1251C36.195 25.9881 33.6398 23.436 30.4991 23.436ZM30.4991 33.0582C28.3274 33.0582 26.5609 31.2935 26.5609 29.1251C26.5609 26.9562 28.3274 25.1916 30.4991 25.1916C32.6707 25.1916 34.4372 26.9562 34.4372 29.1251C34.4372 31.2935 32.6707 33.0582 30.4991 33.0582Z" fill="white"/>
<path d="M40.8669 21.3119L38.3213 18.7694C38.0119 18.4604 37.5216 18.4257 37.1719 18.6884L35.2543 20.1276C34.6954 19.8324 34.1104 19.5907 33.5061 19.4044L33.1692 17.0327C33.1078 16.5996 32.7366 16.2778 32.299 16.2778H28.6991C28.261 16.2778 27.8903 16.5996 27.8285 17.0327L27.4915 19.4044C26.8873 19.5907 26.3027 19.8324 25.7438 20.1276L23.8262 18.6884C23.476 18.4257 22.9862 18.4604 22.6763 18.7694L20.1312 21.3119C19.8217 21.6213 19.7869 22.1107 20.0497 22.4599L21.4907 24.3757C21.1955 24.9337 20.9529 25.5178 20.7665 26.1211L18.3917 26.458C17.9582 26.5194 17.6364 26.8902 17.6364 27.3273V30.9226C17.6364 31.3598 17.9582 31.7306 18.3917 31.7919L20.7665 32.1288C20.9529 32.7321 21.195 33.3163 21.4907 33.8743L20.0497 35.79C19.7869 36.1393 19.8217 36.6286 20.1312 36.9381L22.6763 39.4805C22.9862 39.7895 23.476 39.8238 23.8262 39.5615L25.7438 38.1223C26.3027 38.4171 26.8873 38.6593 27.4915 38.8456L27.8285 41.2173C27.8903 41.6503 28.261 41.9717 28.6991 41.9717H32.299C32.7366 41.9717 33.1074 41.6503 33.1692 41.2173L33.5061 38.8456C34.1104 38.6593 34.6954 38.4171 35.2543 38.1223L37.1719 39.5615C37.5216 39.8243 38.0119 39.7895 38.3213 39.4805L40.8669 36.9381C41.1764 36.6286 41.2107 36.1393 40.948 35.79L39.5069 33.8743C39.8026 33.3163 40.0448 32.7321 40.2311 32.1288L42.606 31.7919C43.0395 31.7306 43.3618 31.3598 43.3618 30.9226V27.3273C43.3618 26.8902 43.0395 26.5194 42.606 26.458L40.2311 26.1211C40.0448 25.5178 39.8026 24.9337 39.5069 24.3757L40.948 22.4599C41.2107 22.1107 41.1764 21.6213 40.8669 21.3119ZM41.6039 28.0891V30.1604L39.4145 30.4713C39.0588 30.5216 38.7695 30.783 38.6839 31.1318C38.4806 31.9631 38.1519 32.7555 37.7075 33.4865C37.5207 33.7932 37.5399 34.1823 37.756 34.4694L39.0844 36.2354L37.6177 37.6998L35.8499 36.3732C35.5624 36.1576 35.1728 36.1379 34.8657 36.3247C34.1337 36.7683 33.3404 37.0965 32.5077 37.3002C32.1589 37.3853 31.8971 37.6742 31.8463 38.0294L31.5359 40.2161H29.4618L29.1509 38.0294C29.1006 37.6742 28.8383 37.3853 28.4895 37.3002C27.6568 37.0965 26.864 36.7683 26.132 36.3247C25.8248 36.1379 25.4353 36.1576 25.1478 36.3732L23.3799 37.6998L21.9132 36.235L23.2417 34.4694C23.4573 34.1823 23.4765 33.7932 23.2902 33.4865C22.8457 32.7555 22.517 31.9631 22.3133 31.1313C22.2282 30.783 21.9389 30.5211 21.5832 30.4708L19.3937 30.1604V28.0891L21.5832 27.7787C21.9389 27.7283 22.2282 27.4665 22.3133 27.1181C22.517 26.2864 22.8457 25.4944 23.2902 24.7634C23.4765 24.4562 23.4573 24.0671 23.2417 23.7806L21.9132 22.0145L23.3799 20.5497L25.1478 21.8767C25.4353 22.0919 25.8248 22.1116 26.132 21.9253C26.864 21.4812 27.6568 21.153 28.4895 20.9498C28.8383 20.8642 29.1001 20.5758 29.1509 20.2201L29.4618 18.0334H31.5359L31.8463 20.2201C31.8971 20.5753 32.1589 20.8642 32.5077 20.9498C33.3404 21.153 34.1337 21.4812 34.8657 21.9253C35.1728 22.1116 35.5624 22.0919 35.8499 21.8767L37.6177 20.5497L39.0844 22.0145L37.756 23.7806C37.5399 24.0671 37.5207 24.4567 37.7075 24.7634C38.1519 25.4944 38.4802 26.2864 38.6839 27.1177C38.769 27.4665 39.0583 27.7283 39.414 27.7787L41.6039 28.0891Z" fill="white"/>
<path d="M30.4987 6.90399C30.9843 6.90399 31.3776 6.51123 31.3776 6.02646V0.877991C31.3776 0.392761 30.9843 0 30.4987 0C30.0134 0 29.6198 0.392761 29.6198 0.877991V6.02646C29.6198 6.51123 30.0134 6.90399 30.4987 6.90399Z" fill="white"/>
<path d="M56.8059 26.2754H51.651C51.1653 26.2754 50.7721 26.6682 50.7721 27.1529C50.7721 27.6382 51.1653 28.0309 51.651 28.0309H56.8059C57.2911 28.0309 57.6848 27.6382 57.6848 27.1529C57.6848 26.6682 57.2911 26.2754 56.8059 26.2754Z" fill="white"/>
<path d="M9.34628 26.2754H4.19141C3.70618 26.2754 3.3125 26.6682 3.3125 27.1529C3.3125 27.6382 3.70618 28.0309 4.19141 28.0309H9.34628C9.83151 28.0309 10.2252 27.6382 10.2252 27.1529C10.2252 26.6682 9.83197 26.2754 9.34628 26.2754Z" fill="white"/>
<path d="M14.92 12.8347C15.2588 13.1729 15.8246 13.1729 16.1628 12.8347C16.5062 12.4918 16.5062 11.9361 16.1628 11.5932L12.5181 7.95261C12.1748 7.6102 11.6182 7.6102 11.2748 7.95261C10.932 8.29547 10.932 8.8512 11.2748 9.19452L14.92 12.8347Z" fill="white"/>
<path d="M11.1242 18.6289L9.34306 17.9317C8.89079 17.7551 8.3813 17.9775 8.20415 18.4289C8.02699 18.8802 8.24992 19.3897 8.70174 19.5664L10.4834 20.2636C10.9297 20.438 11.4474 20.2119 11.6223 19.7665C11.7994 19.3147 11.5765 18.8056 11.1242 18.6289Z" fill="white"/>
<path d="M21.9641 7.80265C22.139 8.24806 22.6567 8.47419 23.103 8.29978C23.5549 8.12309 23.7778 7.6136 23.6011 7.16224L22.8824 5.33119C22.7057 4.87937 22.1958 4.6569 21.7435 4.8336C21.2917 5.01075 21.0687 5.51978 21.2459 5.97114L21.9641 7.80265Z" fill="white"/>
<path d="M37.8938 8.2996C38.3401 8.47401 38.8578 8.24787 39.0327 7.80247L39.7514 5.97141C39.9281 5.5196 39.7056 5.01057 39.2533 4.83341C38.8015 4.65718 38.2915 4.87919 38.1144 5.33055L37.3962 7.16206C37.219 7.61341 37.4419 8.12245 37.8938 8.2996Z" fill="white"/>
<path d="M45.4556 13.0919C45.6803 13.0919 45.9055 13.0063 46.0772 12.8347L49.7219 9.19452C50.0652 8.8512 50.0652 8.29547 49.7219 7.95261C49.3786 7.6102 48.8224 7.6102 48.4791 7.95261L44.8339 11.5932C44.4906 11.9361 44.4906 12.4918 44.8339 12.8347C45.0056 13.0063 45.2308 13.0919 45.4556 13.0919Z" fill="white"/>
<path d="M52.793 18.4289C52.6159 17.9771 52.1059 17.7551 51.6541 17.9318L49.8725 18.629C49.4207 18.8057 49.1978 19.3147 49.3749 19.7665C49.5498 20.2119 50.0675 20.4381 50.5138 20.2637L52.2955 19.5665C52.7473 19.3898 52.9702 18.8803 52.793 18.4289Z" fill="white"/>
<path d="M30.6593 9.0412C26.9976 9.01008 23.4243 10.0529 20.3326 12.0556C19.9252 12.3197 19.8094 12.8631 20.0735 13.27C20.3372 13.6765 20.8819 13.7923 21.2888 13.5287C24.0515 11.7397 27.2338 10.7963 30.5032 10.7963C30.5503 10.7963 30.5979 10.7963 30.6451 10.7967C35.1705 10.8347 39.419 12.6232 42.6083 15.834C45.7993 19.0461 47.5567 23.3074 47.5567 27.8329C47.5567 33.3672 44.8481 38.577 40.3108 41.7695C38.8139 42.8223 37.8352 44.4355 37.5894 46.1993H34.5828C34.0971 46.1993 33.7039 46.5925 33.7039 47.0772C33.7039 47.562 34.0971 47.9552 34.5828 47.9552H37.5285V52.4569C37.5285 53.5692 36.6221 54.4742 35.5084 54.4742H25.4897C24.376 54.4742 23.4696 53.5692 23.4696 52.4569V47.9552H31.0671C31.5528 47.9552 31.946 47.562 31.946 47.0772C31.946 46.5925 31.5528 46.1993 31.0671 46.1993H23.4074C23.1648 44.4332 22.2003 42.8287 20.7212 41.7933C16.1628 38.6027 13.4414 33.3842 13.4414 27.8333C13.4414 23.2104 15.2963 18.8712 18.6649 15.6151C19.0138 15.2778 19.0229 14.7221 18.6851 14.3737C18.3477 14.0253 17.7915 14.0162 17.4423 14.3536C13.7289 17.9433 11.6836 22.7306 11.6836 27.8333C11.6836 33.9559 14.6852 39.7123 19.7123 43.2311C20.9643 44.1073 21.7118 45.5451 21.7118 47.0772V52.4569C21.7118 54.2815 23.0155 55.8077 24.7413 56.1552C25.6962 58.4769 27.942 59.9999 30.4991 59.9999C33.0561 59.9999 35.3019 58.4769 36.2563 56.1552C37.9821 55.8077 39.2858 54.2815 39.2858 52.4569V47.0795C39.2858 47.0786 39.2863 47.0782 39.2863 47.0772C39.2863 45.5497 40.0475 44.1022 41.3233 43.2046C46.3267 39.6839 49.3141 33.9376 49.3141 27.8333C49.3141 22.8414 47.3759 18.1411 43.8561 14.5975C40.3382 11.0563 35.6516 9.08286 30.6593 9.0412ZM30.4991 58.2444C28.9532 58.2444 27.5657 57.4694 26.7568 56.2298H34.2413C33.4324 57.4694 32.0449 58.2444 30.4991 58.2444Z" fill="white"/>
</g>
<defs>
<clipPath id="clip0_1_1789">
<rect width="60" height="60" fill="white" transform="translate(0.5)"/>
</clipPath>
</defs>
</svg>
