<svg width="16" height="16" viewBox="0 0 16 16" fill="none" xmlns="http://www.w3.org/2000/svg">
<path d="M3.33314 6.57353C4.61074 9.35612 6.88408 11.5685 9.71044 12.7678L10.1635 12.9697C11.2 13.4315 12.4185 13.0806 13.0508 12.1383L13.6428 11.2558C13.8353 10.9689 13.7767 10.5825 13.5078 10.3655L11.4999 8.74566C11.205 8.50773 10.7713 8.56315 10.5457 8.86759L9.92454 9.70576C8.33067 8.91953 7.03663 7.6255 6.25041 6.03162L7.08857 5.41048C7.39301 5.18486 7.44843 4.75119 7.21051 4.45626L5.59059 2.4483C5.3737 2.17945 4.98736 2.1208 4.70045 2.31318L3.81189 2.90898C2.86366 3.54479 2.51474 4.77335 2.98723 5.81265L3.33262 6.57239L3.33314 6.57353Z" fill="white"/>
</svg>
