<svg width="25" height="24" viewBox="0 0 25 24" fill="none" xmlns="http://www.w3.org/2000/svg">
<path fill-rule="evenodd" clip-rule="evenodd" d="M15.0212 15.4456C12.3709 17.5682 8.49146 17.4011 6.03468 14.9444C3.39864 12.3083 3.39864 8.03445 6.03468 5.39842C8.67072 2.76238 12.9446 2.76238 15.5806 5.39842C18.0374 7.8552 18.2045 11.7346 16.0818 14.3849L21.2375 19.5405C21.5303 19.8334 21.5303 20.3083 21.2375 20.6012C20.9446 20.8941 20.4697 20.8941 20.1768 20.6012L15.0212 15.4456ZM7.09534 13.8837C5.04508 11.8334 5.04508 8.50933 7.09534 6.45908C9.14559 4.40882 12.4697 4.40882 14.52 6.45908C16.5687 8.50782 16.5702 11.8286 14.5245 13.8792C14.523 13.8807 14.5214 13.8822 14.5199 13.8837C14.5184 13.8852 14.5169 13.8867 14.5154 13.8882C12.4648 15.9339 9.14409 15.9324 7.09534 13.8837Z" fill="black"/>
</svg>
