<svg width="25" height="24" viewBox="0 0 25 24" fill="none" xmlns="http://www.w3.org/2000/svg">
<path fill-rule="evenodd" clip-rule="evenodd" d="M19.7838 5.25H5.97125L4.79107 3.1346C4.65861 2.89715 4.408 2.75 4.13611 2.75H2.63611C2.22189 2.75 1.88611 3.08579 1.88611 3.5C1.88611 3.91421 2.22189 4.25 2.63611 4.25H3.69571L4.8604 6.33765L7.54647 12.2809L7.54923 12.2869L7.78581 12.8104L5.08897 15.687C4.89506 15.8939 4.83436 16.1924 4.93209 16.4585C5.02982 16.7247 5.26928 16.913 5.55097 16.9452L8.0091 17.2261C11.0838 17.5775 14.1885 17.5775 17.2632 17.2261L19.7213 16.9452C20.1328 16.8981 20.4283 16.5264 20.3813 16.1148C20.3342 15.7033 19.9625 15.4078 19.551 15.4549L17.0928 15.7358C14.1313 16.0742 11.1409 16.0742 8.17942 15.7358L7.2039 15.6243L9.18328 13.513C9.20243 13.4925 9.22021 13.4713 9.23663 13.4494L9.98945 13.5474C11.0444 13.6847 12.1107 13.7116 13.1712 13.6277C15.6447 13.4321 17.9371 12.2551 19.5376 10.3591L20.1157 9.67425C20.1351 9.65125 20.1531 9.62711 20.1696 9.60194L21.247 7.96009C22.0106 6.79633 21.1758 5.25 19.7838 5.25ZM9.29238 11.944C9.12697 11.9225 8.98434 11.8175 8.91469 11.666L8.91336 11.6631L6.69285 6.75H19.7838C19.9827 6.75 20.1019 6.9709 19.9929 7.13716L18.9403 8.74123L18.3914 9.39152C17.0493 10.9814 15.127 11.9683 13.053 12.1324C12.0964 12.208 11.1345 12.1837 10.183 12.0599L9.29238 11.944Z" fill="black"/>
<path d="M7.13611 18.5C6.30768 18.5 5.63611 19.1716 5.63611 20C5.63611 20.8284 6.30768 21.5 7.13611 21.5C7.96454 21.5 8.63611 20.8284 8.63611 20C8.63611 19.1716 7.96454 18.5 7.13611 18.5Z" fill="black"/>
<path d="M16.6361 20C16.6361 19.1716 17.3077 18.5 18.1361 18.5C18.9645 18.5 19.6361 19.1716 19.6361 20C19.6361 20.8284 18.9645 21.5 18.1361 21.5C17.3077 21.5 16.6361 20.8284 16.6361 20Z" fill="black"/>
</svg>
