<svg width="18" height="18" viewBox="0 0 18 18" fill="none" xmlns="http://www.w3.org/2000/svg">
<path fill-rule="evenodd" clip-rule="evenodd" d="M7.8648 3.08541C8.37061 2.21371 9.62944 2.21372 10.1353 3.08542L11.6843 5.75494C11.827 6.001 12.0738 6.16892 12.3551 6.2114L14.9274 6.59991C16.0486 6.76926 16.4419 8.18494 15.5687 8.90838L13.6945 10.4611C13.4315 10.6791 13.3078 11.0228 13.3717 11.3584L13.8967 14.1154C14.1023 15.1954 12.9686 16.0345 11.9958 15.5223L9.43681 14.1748C9.16341 14.0309 8.83664 14.0309 8.56324 14.1748L6.00422 15.5223C5.03146 16.0345 3.89774 15.1954 4.10339 14.1154L4.62837 11.3584C4.69227 11.0228 4.56858 10.6791 4.30553 10.4611L2.43135 8.90838C1.55814 8.18493 1.95144 6.76926 3.07269 6.59991L5.64492 6.2114C5.92622 6.16892 6.17301 6.001 6.31579 5.75494L7.8648 3.08541ZM9.1622 3.65004C9.08994 3.52551 8.91011 3.52551 8.83785 3.65004L7.28884 6.31956C6.97472 6.8609 6.43179 7.23032 5.81293 7.32379L3.2407 7.71229C3.08052 7.73648 3.02433 7.93872 3.14908 8.04207L5.02325 9.59481C5.60198 10.0743 5.8741 10.8306 5.73351 11.5689L5.20853 14.3258C5.17915 14.4801 5.34111 14.6 5.48008 14.5268L8.0391 13.1794C8.64058 12.8627 9.35948 12.8627 9.96095 13.1794L12.52 14.5268C12.6589 14.6 12.8209 14.4801 12.7915 14.3258L12.2665 11.5689C12.126 10.8306 12.3981 10.0743 12.9768 9.59481L14.851 8.04207C14.9757 7.93872 14.9195 7.73648 14.7594 7.71229L12.1871 7.32379C11.5683 7.23032 11.0253 6.8609 10.7112 6.31956L9.1622 3.65004Z" fill="#F7F5F0"/>
</svg>
