<svg width="25" height="24" viewBox="0 0 25 24" fill="none" xmlns="http://www.w3.org/2000/svg">
<path fill-rule="evenodd" clip-rule="evenodd" d="M8.38611 7.5C8.38611 5.15279 10.2889 3.25 12.6361 3.25C14.9833 3.25 16.8861 5.15279 16.8861 7.5C16.8861 9.84721 14.9833 11.75 12.6361 11.75C10.2889 11.75 8.38611 9.84721 8.38611 7.5ZM12.6361 4.75C11.1173 4.75 9.88611 5.98122 9.88611 7.5C9.88611 9.01878 11.1173 10.25 12.6361 10.25C14.1549 10.25 15.3861 9.01878 15.3861 7.5C15.3861 5.98122 14.1549 4.75 12.6361 4.75Z" fill="black"/>
<path fill-rule="evenodd" clip-rule="evenodd" d="M8.63611 14.75C7.39347 14.75 6.38611 15.7574 6.38611 17V18.1883C6.38611 18.2064 6.39922 18.2218 6.41708 18.2247C10.5358 18.8972 14.7364 18.8972 18.8551 18.2247C18.873 18.2218 18.8861 18.2064 18.8861 18.1883V17C18.8861 15.7574 17.8787 14.75 16.6361 14.75H16.2952C16.2689 14.75 16.2427 14.7542 16.2176 14.7623L15.3521 15.045C13.5873 15.6212 11.6849 15.6212 9.92009 15.045L9.05458 14.7623C9.02952 14.7542 9.00333 14.75 8.97698 14.75H8.63611ZM4.88611 17C4.88611 14.9289 6.56504 13.25 8.63611 13.25H8.97698C9.16147 13.25 9.3448 13.2792 9.52018 13.3364L10.3857 13.6191C11.848 14.0965 13.4242 14.0965 14.8865 13.6191L15.752 13.3364C15.9274 13.2792 16.1107 13.25 16.2952 13.25H16.6361C18.7072 13.25 20.3861 14.9289 20.3861 17V18.1883C20.3861 18.9415 19.8402 19.5837 19.0968 19.7051C14.818 20.4037 10.4542 20.4037 6.17538 19.7051C5.43199 19.5837 4.88611 18.9415 4.88611 18.1883V17Z" fill="black"/>
</svg>
