<svg width="18" height="18" viewBox="0 0 18 18" fill="none" xmlns="http://www.w3.org/2000/svg">
<path fill-rule="evenodd" clip-rule="evenodd" d="M9.48361 3.94784C9.18609 3.76869 8.81391 3.76869 8.51639 3.94784L8.12916 4.18101C7.09324 4.80479 5.93027 5.18756 4.72637 5.30099L4.48241 5.32397C4.3861 5.33305 4.3125 5.41391 4.3125 5.51065V6.74356C4.3125 8.62422 5.07602 10.4243 6.42816 11.7314L8.86968 14.0917C8.94236 14.1619 9.05764 14.1619 9.13032 14.0917L11.5718 11.7314C12.924 10.4243 13.6875 8.62422 13.6875 6.74356V5.51065C13.6875 5.4139 13.6139 5.33305 13.5176 5.32397L13.2736 5.30099C12.0697 5.18756 10.9068 4.80479 9.87084 4.18101L9.48361 3.94784ZM7.93606 2.98408C8.5906 2.58994 9.4094 2.58994 10.0639 2.98408L10.4512 3.21724C11.3425 3.75399 12.3432 4.08335 13.3791 4.18095L13.6231 4.20393C14.2973 4.26745 14.8125 4.83347 14.8125 5.51065V6.74356C14.8125 8.92919 13.9252 11.0212 12.3538 12.5403L9.91224 14.9005C9.40351 15.3923 8.59649 15.3923 8.08776 14.9005L5.64624 12.5403C4.07483 11.0212 3.1875 8.92919 3.1875 6.74356V5.51065C3.1875 4.83347 3.70269 4.26745 4.37689 4.20393L4.62085 4.18095C5.65676 4.08335 6.65746 3.75399 7.54883 3.21725L7.93606 2.98408Z" fill="#F7F5F0"/>
</svg>
