<svg width="56" height="56" viewBox="0 0 56 56" fill="none" xmlns="http://www.w3.org/2000/svg">
<g clip-path="url(#clip0_1_1832)">
<path d="M55.7436 44.6068L43.6686 32.5318C43.7285 32.4849 43.7913 32.4419 43.8568 32.4032L47.075 30.6908C47.898 30.2581 48.5194 29.521 48.8066 28.6367C49.0938 27.7523 49.0241 26.7908 48.6124 25.9571L47.0094 22.6784C46.8863 22.4285 46.8223 22.1537 46.8223 21.8752C46.8223 21.5966 46.8863 21.3218 47.0094 21.0719L48.6124 17.7933C49.0241 16.9596 49.0938 15.9981 48.8066 15.1137C48.5194 14.2294 47.898 13.4922 47.075 13.0596L43.8533 11.3489C43.6069 11.2192 43.3937 11.0345 43.2302 10.8092C43.0666 10.5839 42.9571 10.324 42.91 10.0496L42.2791 6.45506C42.1222 5.53883 41.6135 4.72015 40.8616 4.17356C40.1097 3.62697 39.1741 3.3957 38.2541 3.52906L34.6404 4.04094C34.3648 4.07931 34.0841 4.0546 33.8194 3.96866C33.5548 3.88271 33.3131 3.73779 33.1126 3.54481L30.4876 1.00731C29.822 0.358042 28.929 -0.00537109 27.9991 -0.00537109C27.0693 -0.00537109 26.1763 0.358042 25.5106 1.00731L22.8856 3.54481C22.6852 3.73779 22.4435 3.88271 22.1788 3.96866C21.9142 4.0546 21.6335 4.07931 21.3579 4.04094L17.7432 3.52906C16.8234 3.39616 15.8879 3.62761 15.1361 4.17412C14.3844 4.72064 13.8756 5.53904 13.7183 6.45506L13.0874 10.0496C13.0403 10.3241 12.9307 10.5841 12.767 10.8094C12.6032 11.0348 12.3898 11.2194 12.1432 11.3489L8.925 13.0596C8.102 13.4922 7.48062 14.2294 7.19341 15.1137C6.90621 15.9981 6.9759 16.9596 7.38762 17.7933L8.99062 21.0719C9.11368 21.3218 9.17767 21.5966 9.17767 21.8752C9.17767 22.1537 9.11368 22.4285 8.99062 22.6784L7.38412 25.9571C6.9724 26.7908 6.90271 27.7523 7.18991 28.6367C7.47712 29.521 8.0985 30.2581 8.9215 30.6908L12.1467 32.4014C12.2118 32.4404 12.2743 32.4833 12.334 32.5301L0.258999 44.6051C0.148439 44.7155 0.0694635 44.8535 0.030279 45.0048C-0.00890546 45.156 -0.00686967 45.315 0.0361749 45.4652C0.0792194 45.6154 0.161702 45.7514 0.275053 45.8589C0.388404 45.9665 0.528488 46.0417 0.680749 46.0768L8.19087 47.8102L9.92425 55.3203C9.95935 55.4726 10.0346 55.6127 10.1421 55.726C10.2497 55.8394 10.3856 55.9218 10.5358 55.9649C10.6861 56.0079 10.845 56.01 10.9963 55.9708C11.1476 55.9316 11.2856 55.8526 11.396 55.7421L24.9436 42.1936L25.5115 42.7439C26.1772 43.393 27.0702 43.7563 28 43.7563C28.9298 43.7563 29.8228 43.393 30.4885 42.7439L31.0564 42.1936L44.6066 55.7438C44.717 55.8544 44.8551 55.9333 45.0063 55.9725C45.1576 56.0117 45.3166 56.0097 45.4668 55.9666C45.617 55.9236 45.7529 55.8411 45.8605 55.7278C45.968 55.6144 46.0433 55.4743 46.0784 55.3221L47.8118 47.8119L55.3219 46.0786C55.4741 46.0435 55.6142 45.9682 55.7276 45.8607C55.8409 45.7531 55.9234 45.6172 55.9664 45.467C56.0095 45.3168 56.0115 45.1578 55.9723 45.0065C55.9332 44.8552 55.8542 44.7172 55.7436 44.6068ZM11.2717 53.3901L9.77112 46.8853C9.73429 46.7254 9.65322 46.5791 9.53717 46.463C9.42113 46.347 9.27479 46.2659 9.11487 46.2291L2.61012 44.7284L13.1722 34.1663L13.7209 37.2953C13.8787 38.2111 14.3875 39.0293 15.1392 39.5757C15.8909 40.1221 16.8261 40.3538 17.7459 40.2213L21.3596 39.7094C21.6352 39.6715 21.9158 39.6964 22.1804 39.7823C22.445 39.8682 22.6867 40.0129 22.8874 40.2056L23.6845 40.9764L11.2717 53.3901ZM26.7286 41.4857L25.5518 40.3482L24.1045 38.9482C23.4405 38.3019 22.5505 37.9402 21.6239 37.9402C21.4538 37.9405 21.2839 37.9525 21.1155 37.9761L17.5 38.4879C17.0297 38.5571 16.551 38.4393 16.1665 38.1597C15.782 37.8802 15.5222 37.4613 15.4429 36.9926L14.812 33.3981C14.7346 32.99 14.5865 32.5985 14.3745 32.2413C14.3547 32.1987 14.3316 32.1578 14.3054 32.1188C13.9787 31.5873 13.5175 31.1514 12.9684 30.8553L9.744 29.1447C9.32309 28.9241 9.00512 28.5476 8.85799 28.0957C8.71085 27.6439 8.7462 27.1524 8.9565 26.7262L10.5595 23.4502C10.8 22.9609 10.925 22.423 10.925 21.8778C10.925 21.3326 10.8 20.7947 10.5595 20.3054L8.9565 17.0268C8.7462 16.6006 8.71085 16.1092 8.85799 15.6573C9.00512 15.2054 9.32309 14.8289 9.744 14.6083L12.9675 12.8977C13.4499 12.6439 13.8674 12.2826 14.1879 11.8417C14.5083 11.4008 14.7231 10.8921 14.8155 10.3549L15.4464 6.76044C15.5243 6.29155 15.7831 5.87194 16.1671 5.59183C16.5511 5.31171 17.0297 5.19344 17.5 5.26244L21.1146 5.77431C21.654 5.85175 22.204 5.80438 22.7222 5.63585C23.2404 5.46731 23.713 5.1821 24.1036 4.80219L26.7286 2.26469C27.0686 1.93279 27.5249 1.747 28 1.747C28.4751 1.747 28.9314 1.93279 29.2714 2.26469L31.8964 4.80219C32.2868 5.18219 32.7592 5.46752 33.2773 5.63621C33.7953 5.8049 34.3452 5.85244 34.8845 5.77519L38.5 5.26244C38.9703 5.19308 39.4491 5.3108 39.8337 5.59035C40.2183 5.8699 40.478 6.28902 40.5571 6.75781L41.188 10.3523C41.2805 10.8893 41.4951 11.3979 41.8154 11.8388C42.1357 12.2797 42.553 12.6411 43.0351 12.8951L46.2595 14.6057C46.6804 14.8263 46.9984 15.2028 47.1455 15.6546C47.2927 16.1065 47.2573 16.598 47.047 17.0242L45.4405 20.3002C45.2 20.7895 45.075 21.3274 45.075 21.8726C45.075 22.4177 45.2 22.9557 45.4405 23.4449L47.0435 26.7236C47.2538 27.1497 47.2892 27.6412 47.142 28.0931C46.9949 28.545 46.6769 28.9214 46.256 29.1421L43.0325 30.8527C42.5501 31.1065 42.1326 31.4678 41.8121 31.9087C41.4917 32.3496 41.2769 32.8583 41.1845 33.3954L40.5536 36.9899C40.4746 37.4583 40.2156 37.8772 39.8319 38.1571C39.4481 38.4371 38.9701 38.5558 38.5 38.4879L34.8836 37.9752C34.3442 37.8978 33.7943 37.9452 33.2761 38.1138C32.7579 38.2823 32.2853 38.5675 31.8946 38.9473L29.2696 41.4848C28.9298 41.8163 28.474 42.0019 27.9993 42.0021C27.5246 42.0023 27.0686 41.8169 26.7286 41.4857ZM46.8851 46.2291C46.7252 46.2659 46.5789 46.347 46.4628 46.463C46.3468 46.5791 46.2657 46.7254 46.2289 46.8853L44.7283 53.3901L32.3146 40.9764L33.1109 40.2056C33.3117 40.0131 33.5534 39.8686 33.818 39.7826C34.0825 39.6967 34.3631 39.6717 34.6386 39.7094L38.2533 40.2213C39.1731 40.354 40.1084 40.1225 40.8602 39.576C41.6119 39.0295 42.1207 38.2112 42.2783 37.2953L42.8269 34.1663L53.3899 44.7284L46.8851 46.2291Z" fill="white"/>
<path d="M41.125 21.8748C41.1255 18.7323 39.9977 15.6941 37.947 13.313C37.8752 13.2171 37.7844 13.1369 37.6804 13.0775C37.5763 13.0181 37.4612 12.9807 37.342 12.9676C37.2229 12.9546 37.1024 12.9661 36.9879 13.0015C36.8735 13.037 36.7675 13.0955 36.6766 13.1736C36.5857 13.2516 36.5118 13.3475 36.4594 13.4553C36.4071 13.5631 36.3775 13.6805 36.3724 13.8002C36.3673 13.9199 36.3869 14.0394 36.4298 14.1513C36.4728 14.2631 36.5383 14.365 36.6223 14.4505C38.4999 16.6346 39.478 19.4503 39.3587 22.3281C39.2393 25.2059 38.0315 27.931 35.9794 29.9521C33.9273 31.9733 31.1843 33.1396 28.305 33.2153C25.4257 33.2909 22.6252 32.2702 20.4698 30.3596C18.3144 28.4491 16.9651 25.7912 16.6948 22.9236C16.4245 20.0561 17.2533 17.1929 19.0137 14.9132C20.7741 12.6334 23.3346 11.1074 26.1773 10.6437C29.0199 10.1799 31.9327 10.8131 34.3263 12.4152C34.4215 12.4833 34.5295 12.5315 34.6437 12.5571C34.7579 12.5826 34.8761 12.585 34.9913 12.5641C35.1064 12.5432 35.2162 12.4993 35.3142 12.4352C35.4121 12.3711 35.4962 12.288 35.5614 12.1908C35.6266 12.0936 35.6717 11.9843 35.6939 11.8694C35.7161 11.7544 35.7151 11.6362 35.6908 11.5217C35.6665 11.4072 35.6195 11.2987 35.5526 11.2027C35.4856 11.1067 35.4001 11.0251 35.301 10.9627C32.8693 9.33492 29.9633 8.56647 27.0447 8.77945C24.1262 8.99244 21.3626 10.1747 19.1929 12.1382C17.0232 14.1018 15.572 16.7342 15.0698 19.6171C14.5675 22.4999 15.0431 25.468 16.421 28.0496C17.7988 30.6312 19.9999 32.6783 22.6745 33.8657C25.3491 35.053 28.3437 35.3125 31.1827 34.6029C34.0216 33.8933 36.542 32.2553 38.3434 29.9492C40.1448 27.6431 41.1239 24.8011 41.125 21.8748Z" fill="white"/>
<path d="M33.0531 17.7729L26.2351 24.9531L22.9696 21.2326C22.8962 21.1388 22.8044 21.061 22.6999 21.004C22.5954 20.9469 22.4803 20.9118 22.3617 20.9007C22.2432 20.8897 22.1236 20.903 22.0103 20.9397C21.897 20.9765 21.7925 21.036 21.703 21.1146C21.6136 21.1932 21.5411 21.2893 21.49 21.3969C21.439 21.5045 21.4104 21.6214 21.4061 21.7404C21.4018 21.8594 21.4219 21.978 21.465 22.089C21.5082 22.2 21.5735 22.301 21.6571 22.3859L25.55 26.8265C25.6301 26.918 25.7285 26.9918 25.8388 27.0432C25.949 27.0946 26.0688 27.1224 26.1905 27.1249H26.208C26.3267 27.1248 26.4442 27.1005 26.5532 27.0536C26.6623 27.0067 26.7607 26.938 26.8423 26.8519L34.3192 18.9769C34.4026 18.8944 34.4686 18.7961 34.5133 18.6876C34.5579 18.5792 34.5803 18.4629 34.5791 18.3456C34.578 18.2284 34.5532 18.1125 34.5064 18.005C34.4595 17.8975 34.3916 17.8005 34.3065 17.7198C34.2214 17.6391 34.121 17.5763 34.0112 17.5351C33.9014 17.494 33.7844 17.4753 33.6672 17.4803C33.5501 17.4852 33.4351 17.5137 33.3291 17.5639C33.2232 17.6142 33.1284 17.6853 33.0505 17.7729H33.0531Z" fill="white"/>
</g>
<defs>
<clipPath id="clip0_1_1832">
<rect width="56" height="56" fill="white"/>
</clipPath>
</defs>
</svg>
